<?xml version="1.0" encoding="UTF-8" standalone="no"?>
<!DOCTYPE svg PUBLIC "-//W3C//DTD SVG 1.1//EN" "http://www.w3.org/Graphics/SVG/1.1/DTD/svg11.dtd">
<svg xmlns="http://www.w3.org/2000/svg" version="1.1" viewBox="0.00 0.00 1024.00 1011.00">
<g stroke-width="2.00" fill="none" stroke-linecap="butt">
<path stroke="#787877" vector-effect="non-scaling-stroke" d="
  M 522.61 45.69
  Q 522.10 54.31 518.93 62.26
  A 0.18 0.18 0.0 0 0 519.25 62.43
  Q 525.81 51.90 527.46 49.70
  C 532.92 42.40 542.23 41.42 549.53 46.75
  A 0.36 0.36 0.0 0 0 550.09 46.35
  C 549.61 44.79 548.37 42.93 547.09 41.96
  Q 539.97 36.62 531.03 39.38
  Q 526.80 40.69 525.23 45.17
  A 0.90 0.85 -7.6 0 1 524.85 45.64
  Q 524.16 46.07 523.46 45.57"
/>
<path stroke="#787877" vector-effect="non-scaling-stroke" d="
  M 518.23 71.88
  L 506.77 71.89
  A 0.53 0.53 0.0 0 0 506.24 72.41
  L 506.19 76.94"
/>
<path stroke="#787877" vector-effect="non-scaling-stroke" d="
  M 501.13 45.58
  Q 500.45 45.99 499.96 45.85
  Q 499.55 45.73 499.23 44.94
  Q 497.37 40.32 492.48 39.03
  C 485.37 37.16 477.64 39.52 474.28 46.34
  A 0.41 0.41 0.0 0 0 474.90 46.85
  C 481.47 41.88 491.68 42.14 496.67 49.12
  Q 502.64 57.47 509.22 69.69
  A 0.08 0.08 0.0 0 0 509.33 69.72
  L 509.34 69.72
  A 0.13 0.13 0.0 0 0 509.39 69.55
  Q 503.96 60.01 503.11 53.33
  Q 502.62 49.56 501.87 45.84"
/>
<path stroke="#787877" vector-effect="non-scaling-stroke" d="
  M 518.23 71.88
  L 518.25 76.93"
/>
<path stroke="#787877" vector-effect="non-scaling-stroke" d="
  M 517.94 77.33
  L 506.47 77.31"
/>
<path stroke="#787877" vector-effect="non-scaling-stroke" d="
  M 512.45 79.04
  Q 512.01 78.64 510.72 79.86"
/>
<path stroke="#787877" vector-effect="non-scaling-stroke" d="
  M 87.25 800.55
  L 83.59 802.97
  A 0.55 0.54 58.5 0 0 83.42 803.70
  L 88.95 813.28
  A 0.52 0.51 57.7 0 0 89.69 813.45
  L 93.63 810.78"
/>
<path stroke="#787877" vector-effect="non-scaling-stroke" d="
  M 68.57 831.65
  Q 69.25 831.54 69.54 831.81
  Q 70.02 832.25 69.61 832.73
  C 63.92 839.27 69.15 848.79 75.47 852.54
  Q 78.93 854.59 82.95 854.08
  A 0.37 0.37 0.0 0 0 83.06 853.37
  C 77.57 850.86 73.50 846.05 73.16 840.00
  Q 72.89 835.41 74.74 831.98
  Q 77.83 826.23 81.49 819.14
  A 0.14 0.14 0.0 0 0 81.25 818.99
  Q 75.91 825.62 68.69 830.43"
/>
<path stroke="#787877" vector-effect="non-scaling-stroke" d="
  M 58.31 812.28
  Q 58.34 812.34 58.39 812.37
  A 0.39 0.18 37.4 0 0 58.70 812.44
  Q 66.89 808.68 75.87 807.35
  A 0.11 0.11 0.0 0 0 75.86 807.13
  Q 64.56 806.69 63.31 806.66
  Q 57.78 806.53 55.79 805.69
  C 48.75 802.72 44.86 796.58 45.73 788.89
  A 0.44 0.44 0.0 0 0 44.96 788.54
  Q 43.77 789.85 43.32 791.56
  Q 40.93 800.57 47.68 807.65
  Q 51.23 811.38 56.20 810.69
  Q 57.01 810.58 57.32 810.80
  Q 57.78 811.12 57.90 811.83"
/>
<path stroke="#787877" vector-effect="non-scaling-stroke" d="
  M 92.28 802.85
  Q 91.54 803.19 91.53 803.82
  A 0.46 0.41 29.2 0 0 91.62 804.08
  L 92.37 805.02"
/>
<path stroke="#787877" vector-effect="non-scaling-stroke" d="
  M 93.63 810.78
  L 87.89 800.82"
/>
<path stroke="#787877" vector-effect="non-scaling-stroke" d="
  M 966.12 811.71
  Q 966.39 810.38 967.25 810.53
  Q 972.26 811.41 975.56 808.36
  Q 983.27 801.24 980.64 791.17
  Q 980.39 790.21 978.95 788.50
  A 0.35 0.35 0.0 0 0 978.35 788.62
  Q 978.25 788.94 978.33 791.11
  C 978.54 797.13 975.12 802.19 969.94 804.95
  Q 966.70 806.67 960.94 806.64
  Q 958.95 806.63 948.32 807.11
  A 0.16 0.09 0.4 0 0 948.19 807.18
  Q 948.18 807.22 948.18 807.27
  A 0.27 0.19 3.9 0 0 948.41 807.46
  Q 957.38 808.68 965.64 812.57"
/>
<path stroke="#787877" vector-effect="non-scaling-stroke" d="
  M 955.35 830.45
  Q 948.22 825.54 942.74 818.99
  A 0.11 0.11 0.0 0 0 942.56 819.11
  Q 944.92 823.97 948.89 831.37
  C 953.46 839.88 949.72 849.56 941.00 853.30
  A 0.41 0.41 0.0 0 0 941.15 854.09
  Q 948.36 854.29 952.78 849.10
  C 956.61 844.59 958.64 838.02 954.69 833.08
  Q 954.24 832.52 954.42 832.11
  Q 954.61 831.65 955.26 831.47"
/>
<path stroke="#787877" vector-effect="non-scaling-stroke" d="
  M 930.58 811.14
  L 934.31 813.27
  A 0.62 0.62 0.0 0 0 935.16 813.04
  L 940.64 803.55
  A 0.30 0.30 0.0 0 0 940.55 803.15
  L 936.70 800.52"
/>
<path stroke="#787877" vector-effect="non-scaling-stroke" d="
  M 936.07 800.76
  L 930.36 810.66"
/>
<path stroke="#787877" vector-effect="non-scaling-stroke" d="
  M 931.70 804.82
  Q 932.93 803.84 931.90 802.99"
/>
<path stroke="#787877" vector-effect="non-scaling-stroke" d="
  M 512.14 11.87
  Q 511.74 11.88 511.21 12.88
  C 501.69 31.02 500.26 51.80 511.38 69.64
  Q 511.79 70.29 512.42 70.29
  Q 513.11 70.29 513.51 69.63
  C 524.42 51.66 522.75 30.89 513.02 12.87
  Q 512.48 11.87 512.14 11.87"
/>
<path stroke="#787877" vector-effect="non-scaling-stroke" d="
  M 511.47 67.57
  A 0.37 0.37 0.0 0 0 512.18 67.41
  L 512.14 14.74
  A 0.30 0.30 0.0 0 0 511.56 14.63
  Q 508.46 21.59 506.22 30.07
  C 502.82 43.05 505.75 55.87 511.47 67.57"
/>
<path stroke="#787877" vector-effect="non-scaling-stroke" d="
  M 497.28 78.47
  L 496.42 79.75
  A 4.14 4.13 -30.7 0 0 495.74 82.40
  Q 496.15 87.08 499.71 88.58
  C 504.78 90.73 507.59 83.90 509.14 79.80
  A 0.73 0.73 0.0 0 0 507.91 79.08
  C 506.23 81.05 504.21 83.27 501.69 82.68
  Q 498.68 81.99 498.53 78.81
  A 0.69 0.68 -29.6 0 0 497.28 78.47"
/>
<path stroke="#787877" vector-effect="non-scaling-stroke" d="
  M 527.32 78.50
  A 0.69 0.68 30.1 0 0 526.06 78.83
  Q 525.88 82.02 522.86 82.69
  C 520.33 83.26 518.33 81.01 516.66 79.02
  A 0.73 0.73 0.0 0 0 515.42 79.74
  C 516.94 83.86 519.70 90.73 524.80 88.62
  Q 528.38 87.14 528.83 82.46
  A 4.15 4.14 31.2 0 0 528.17 79.79
  L 527.32 78.50"
/>
<path stroke="#787877" vector-effect="non-scaling-stroke" d="
  M 512.37 193.87
  Q 511.90 198.45 511.90 203.25
  Q 511.82 364.42 511.86 562.99
  A 0.50 0.50 0.0 0 0 512.64 563.41
  L 533.30 549.92
  A 1.35 1.35 0.0 0 0 533.90 548.66
  Q 533.19 541.99 533.14 537.45
  Q 533.08 530.49 532.58 526.06
  Q 532.36 524.10 531.38 507.50
  Q 527.46 440.82 516.70 262.50
  Q 513.82 214.81 512.37 193.87"
/>
<path stroke="#787877" vector-effect="non-scaling-stroke" d="
  M 187.61 750.84
  L 511.52 563.83
  A 0.38 0.38 0.0 0 0 511.51 563.16
  L 489.86 551.49
  A 0.97 0.95 41.7 0 0 488.86 551.54
  L 187.37 750.46
  A 0.23 0.22 13.0 0 0 187.61 750.84"
/>
<path stroke="#787877" vector-effect="non-scaling-stroke" d="
  M 833.74 749.36
  L 512.76 564.50
  A 0.38 0.38 0.0 0 0 512.19 564.84
  L 512.92 589.19
  A 0.96 0.94 -78.4 0 0 513.46 590.02
  L 833.53 749.76
  A 0.22 0.22 0.0 0 0 833.74 749.36"
/>
<path stroke="#787877" vector-effect="non-scaling-stroke" d="
  M 33.94 838.44
  Q 34.11 838.74 35.25 838.70
  C 55.76 838.11 74.61 829.15 84.73 810.68
  Q 85.10 810.00 84.75 809.40
  Q 84.44 808.85 83.67 808.83
  C 62.62 808.12 45.31 819.78 34.35 837.13
  Q 33.74 838.09 33.94 838.44"
/>
<path stroke="#787877" vector-effect="non-scaling-stroke" d="
  M 990.04 838.41
  Q 990.23 838.06 989.63 837.10
  C 978.67 819.75 961.37 808.10 940.33 808.80
  Q 939.56 808.82 939.24 809.37
  Q 938.90 809.97 939.27 810.65
  C 949.38 829.12 968.22 838.08 988.73 838.68
  Q 989.86 838.71 990.04 838.41"
/>
<path stroke="#787877" vector-effect="non-scaling-stroke" d="
  M 939.65 792.03
  L 938.95 790.67
  A 4.13 4.12 88.1 0 0 936.95 788.79
  Q 932.66 786.90 929.63 789.28
  C 925.31 792.68 929.93 798.43 932.77 801.77
  A 0.73 0.73 0.0 0 0 934.00 801.04
  C 933.08 798.62 932.11 795.78 933.84 793.86
  Q 935.89 791.57 938.75 792.97
  A 0.69 0.68 89.2 0 0 939.65 792.03"
/>
<path stroke="#787877" vector-effect="non-scaling-stroke" d="
  M 924.66 818.14
  A 0.68 0.68 0.0 0 0 925.00 816.89
  Q 922.34 815.16 923.26 812.23
  C 924.02 809.77 926.94 809.15 929.48 808.70
  A 0.72 0.72 0.0 0 0 929.47 807.27
  C 925.17 806.55 917.89 805.53 917.19 810.97
  Q 916.69 814.79 920.50 817.49
  A 4.12 4.11 -29.0 0 0 923.13 818.24
  L 924.66 818.14"
/>
<path stroke="#787877" vector-effect="non-scaling-stroke" d="
  M 84.37 792.07
  A 0.68 0.68 0.0 0 0 85.28 792.99
  Q 88.12 791.58 90.18 793.86
  C 91.92 795.76 90.96 798.59 90.06 801.01
  A 0.72 0.72 0.0 0 0 91.29 801.73
  C 94.10 798.39 98.67 792.63 94.34 789.27
  Q 91.31 786.90 87.05 788.82
  A 4.12 4.11 -88.5 0 0 85.07 790.70
  L 84.37 792.07"
/>
<path stroke="#787877" vector-effect="non-scaling-stroke" d="
  M 99.35 818.21
  L 100.89 818.30
  A 4.16 4.15 28.8 0 0 103.54 817.53
  Q 107.37 814.79 106.86 810.94
  C 106.13 805.46 98.79 806.52 94.45 807.27
  A 0.73 0.73 0.0 0 0 94.45 808.70
  C 97.01 809.15 99.97 809.76 100.74 812.24
  Q 101.68 815.19 99.00 816.95
  A 0.69 0.69 0.0 0 0 99.35 818.21"
/>
<path stroke="#787877" vector-effect="non-scaling-stroke" d="
  M 81.70 809.99
  C 68.80 810.89 56.33 814.75 46.87 824.12
  Q 40.69 830.26 36.25 836.38
  A 0.30 0.30 0.0 0 0 36.64 836.82
  L 81.91 810.68
  A 0.37 0.37 0.0 0 0 81.70 809.99"
/>
<path stroke="#787877" vector-effect="non-scaling-stroke" d="
  M 942.37 809.99
  A 0.37 0.37 0.0 0 0 942.16 810.68
  L 987.37 836.81
  A 0.30 0.30 0.0 0 0 987.76 836.38
  Q 983.33 830.26 977.16 824.12
  C 967.72 814.76 955.26 810.89 942.37 809.99"
/>
</g>
<path fill="#20201e" d="
  M 522.61 45.69
  Q 522.10 54.31 518.93 62.26
  A 0.18 0.18 0.0 0 0 519.25 62.43
  Q 525.81 51.90 527.46 49.70
  C 532.92 42.40 542.23 41.42 549.53 46.75
  A 0.36 0.36 0.0 0 0 550.09 46.35
  C 549.61 44.79 548.37 42.93 547.09 41.96
  Q 539.97 36.62 531.03 39.38
  Q 526.80 40.69 525.23 45.17
  A 0.90 0.85 -7.6 0 1 524.85 45.64
  Q 524.16 46.07 523.46 45.57
  C 525.88 36.86 536.09 35.42 543.33 38.10
  Q 549.72 40.47 551.77 46.39
  A 4.55 4.36 -57.0 0 1 552.00 47.61
  Q 552.52 59.70 540.81 61.34
  A 0.68 0.68 0.0 0 1 540.26 60.16
  L 542.37 58.28
  A 0.96 0.94 76.5 0 0 542.67 57.78
  Q 543.81 53.32 539.47 52.50
  Q 532.46 51.16 527.24 56.30
  Q 520.98 62.45 518.20 70.98
  A 0.85 0.80 -46.6 0 0 518.20 71.51
  Q 518.28 71.77 518.23 71.88
  L 506.77 71.89
  A 0.53 0.53 0.0 0 0 506.24 72.41
  L 506.19 76.94
  Q 505.83 77.04 505.47 76.99
  A 0.77 0.76 1.8 0 1 504.80 76.28
  L 504.59 72.84
  A 0.80 0.80 0.0 0 1 505.14 72.03
  Q 506.65 71.51 505.87 69.54
  Q 502.96 62.25 498.06 57.03
  Q 492.72 51.34 485.42 52.39
  C 480.83 53.05 480.31 57.67 484.05 59.90
  A 0.80 0.80 0.0 0 1 483.50 61.37
  Q 470.89 59.08 472.92 46.17
  Q 473.20 44.39 475.48 41.97
  C 482.37 34.68 497.68 34.51 501.13 45.58
  Q 500.45 45.99 499.96 45.85
  Q 499.55 45.73 499.23 44.94
  Q 497.37 40.32 492.48 39.03
  C 485.37 37.16 477.64 39.52 474.28 46.34
  A 0.41 0.41 0.0 0 0 474.90 46.85
  C 481.47 41.88 491.68 42.14 496.67 49.12
  Q 502.64 57.47 509.22 69.69
  A 0.08 0.08 0.0 0 0 509.33 69.72
  L 509.34 69.72
  A 0.13 0.13 0.0 0 0 509.39 69.55
  Q 503.96 60.01 503.11 53.33
  Q 502.62 49.56 501.87 45.84
  Q 501.47 26.18 511.58 9.17
  A 0.56 0.56 0.0 0 1 512.54 9.16
  Q 523.00 25.90 522.61 45.69
  Z
  M 512.14 11.87
  Q 511.74 11.88 511.21 12.88
  C 501.69 31.02 500.26 51.80 511.38 69.64
  Q 511.79 70.29 512.42 70.29
  Q 513.11 70.29 513.51 69.63
  C 524.42 51.66 522.75 30.89 513.02 12.87
  Q 512.48 11.87 512.14 11.87
  Z"
/>
<path fill="#cfcfcf" d="
  M 512.14 11.87
  Q 512.48 11.87 513.02 12.87
  C 522.75 30.89 524.42 51.66 513.51 69.63
  Q 513.11 70.29 512.42 70.29
  Q 511.79 70.29 511.38 69.64
  C 500.26 51.80 501.69 31.02 511.21 12.88
  Q 511.74 11.88 512.14 11.87
  Z
  M 511.47 67.57
  A 0.37 0.37 0.0 0 0 512.18 67.41
  L 512.14 14.74
  A 0.30 0.30 0.0 0 0 511.56 14.63
  Q 508.46 21.59 506.22 30.07
  C 502.82 43.05 505.75 55.87 511.47 67.57
  Z"
/>
<path fill="#20201e" d="
  M 511.47 67.57
  C 505.75 55.87 502.82 43.05 506.22 30.07
  Q 508.46 21.59 511.56 14.63
  A 0.30 0.30 0.0 0 1 512.14 14.74
  L 512.18 67.41
  A 0.37 0.37 0.0 0 1 511.47 67.57
  Z"
/>
<path fill="#cfcfcf" d="
  M 501.13 45.58
  Q 501.52 45.86 501.87 45.84
  Q 502.62 49.56 503.11 53.33
  Q 503.96 60.01 509.39 69.55
  A 0.13 0.13 0.0 0 1 509.34 69.72
  L 509.33 69.72
  A 0.08 0.08 0.0 0 1 509.22 69.69
  Q 502.64 57.47 496.67 49.12
  C 491.68 42.14 481.47 41.88 474.90 46.85
  A 0.41 0.41 0.0 0 1 474.28 46.34
  C 477.64 39.52 485.37 37.16 492.48 39.03
  Q 497.37 40.32 499.23 44.94
  Q 499.55 45.73 499.96 45.85
  Q 500.45 45.99 501.13 45.58
  Z"
/>
<path fill="#cfcfcf" d="
  M 522.61 45.69
  L 523.46 45.57
  Q 524.16 46.07 524.85 45.64
  A 0.90 0.85 -7.6 0 0 525.23 45.17
  Q 526.80 40.69 531.03 39.38
  Q 539.97 36.62 547.09 41.96
  C 548.37 42.93 549.61 44.79 550.09 46.35
  A 0.36 0.36 0.0 0 1 549.53 46.75
  C 542.23 41.42 532.92 42.40 527.46 49.70
  Q 525.81 51.90 519.25 62.43
  A 0.18 0.18 0.0 0 1 518.93 62.26
  Q 522.10 54.31 522.61 45.69
  Z"
/>
<path fill="#cfcfcf" d="
  M 518.23 71.88
  L 518.25 76.93
  Q 518.31 77.15 517.94 77.33
  L 506.47 77.31
  Q 506.17 77.21 506.19 76.94
  L 506.24 72.41
  A 0.53 0.53 0.0 0 1 506.77 71.89
  L 518.23 71.88
  Z"
/>
<path fill="#20201e" d="
  M 518.25 76.93
  L 518.23 71.88
  Q 518.74 71.86 519.16 71.96
  A 0.78 0.76 5.7 0 1 519.75 72.66
  L 519.96 76.04
  A 0.76 0.76 0.0 0 1 519.27 76.84
  L 518.25 76.93
  Z"
/>
<path fill="#20201e" d="
  M 506.47 77.31
  L 517.94 77.33
  C 518.70 79.85 522.36 83.34 524.44 79.74
  A 1.16 1.14 -38.1 0 0 524.55 78.88
  Q 524.14 77.31 523.22 75.92
  A 0.82 0.77 60.5 0 1 523.51 74.75
  Q 524.29 74.38 525.30 75.03
  C 528.06 76.79 531.05 79.81 530.35 83.34
  C 529.03 90.00 521.69 93.84 517.25 86.97
  Q 515.60 84.40 513.79 79.24
  Q 513.45 78.26 512.45 79.04
  Q 512.01 78.64 510.72 79.86
  Q 510.21 81.11 507.95 85.70
  C 501.29 99.24 485.64 81.24 500.20 74.59
  A 0.91 0.91 0.0 0 1 501.32 75.94
  C 500.31 77.34 499.38 79.64 500.95 80.82
  C 503.22 82.52 505.92 79.44 506.47 77.31
  Z
  M 497.28 78.47
  L 496.42 79.75
  A 4.14 4.13 -30.7 0 0 495.74 82.40
  Q 496.15 87.08 499.71 88.58
  C 504.78 90.73 507.59 83.90 509.14 79.80
  A 0.73 0.73 0.0 0 0 507.91 79.08
  C 506.23 81.05 504.21 83.27 501.69 82.68
  Q 498.68 81.99 498.53 78.81
  A 0.69 0.68 -29.6 0 0 497.28 78.47
  Z
  M 527.32 78.50
  A 0.69 0.68 30.1 0 0 526.06 78.83
  Q 525.88 82.02 522.86 82.69
  C 520.33 83.26 518.33 81.01 516.66 79.02
  A 0.73 0.73 0.0 0 0 515.42 79.74
  C 516.94 83.86 519.70 90.73 524.80 88.62
  Q 528.38 87.14 528.83 82.46
  A 4.15 4.14 31.2 0 0 528.17 79.79
  L 527.32 78.50
  Z"
/>
<path fill="#cfcfcf" d="
  M 497.28 78.47
  A 0.69 0.68 -29.6 0 1 498.53 78.81
  Q 498.68 81.99 501.69 82.68
  C 504.21 83.27 506.23 81.05 507.91 79.08
  A 0.73 0.73 0.0 0 1 509.14 79.80
  C 507.59 83.90 504.78 90.73 499.71 88.58
  Q 496.15 87.08 495.74 82.40
  A 4.14 4.13 -30.7 0 1 496.42 79.75
  L 497.28 78.47
  Z"
/>
<path fill="#cfcfcf" d="
  M 527.32 78.50
  L 528.17 79.79
  A 4.15 4.14 31.2 0 1 528.83 82.46
  Q 528.38 87.14 524.80 88.62
  C 519.70 90.73 516.94 83.86 515.42 79.74
  A 0.73 0.73 0.0 0 1 516.66 79.02
  C 518.33 81.01 520.33 83.26 522.86 82.69
  Q 525.88 82.02 526.06 78.83
  A 0.69 0.68 30.1 0 1 527.32 78.50
  Z"
/>
<path fill="#cfcfcf" d="
  M 512.45 79.04
  Q 512.28 79.74 511.84 80.07
  Q 511.61 80.23 510.72 79.86
  Q 512.01 78.64 512.45 79.04
  Z"
/>
<path fill="#20201e" d="
  M 511.89 86.87
  Q 512.59 86.87 512.60 87.50
  Q 512.91 103.07 514.03 123.49
  A 0.77 0.77 0.0 0 1 513.27 124.30
  Q 512.27 124.31 511.89 124.31
  Q 511.51 124.31 510.51 124.30
  A 0.77 0.77 0.0 0 1 509.75 123.49
  Q 510.87 103.07 511.18 87.50
  Q 511.19 86.87 511.89 86.87
  Z"
/>
<path fill="#20201e" d="
  M 514.42 151.25
  A 0.48 0.47 -88.9 0 0 513.93 151.73
  L 513.93 161.50
  A 0.61 0.60 0.0 0 1 513.32 162.10
  L 510.00 162.10
  A 0.53 0.53 0.0 0 1 509.47 161.57
  L 509.47 132.89
  A 0.70 0.69 90.0 0 1 510.16 132.19
  Q 515.65 132.12 523.27 132.40
  Q 525.16 132.46 527.61 133.15
  C 532.44 134.50 531.86 138.69 531.94 143.19
  C 532.04 148.50 529.16 151.27 523.72 151.31
  Q 518.01 151.36 514.42 151.25
  Z
  M 514.15 136.84
  L 513.99 146.63
  A 0.40 0.40 0.0 0 0 514.39 147.04
  L 523.69 147.19
  A 3.74 3.30 0.9 0 0 527.48 143.95
  L 527.54 139.95
  A 3.74 3.30 0.9 0 0 523.85 136.59
  L 514.55 136.44
  A 0.40 0.40 0.0 0 0 514.15 136.84
  Z"
/>
<path fill="#20201e" d="
  M 482.55 163.30
  L 479.12 163.51
  A 0.52 0.51 -3.3 0 1 478.57 163.03
  L 476.83 134.53
  A 0.71 0.71 0.0 0 1 477.48 133.78
  Q 488.21 132.89 493.94 133.12
  C 500.96 133.40 501.02 140.80 500.14 145.78
  A 1.60 1.60 0.0 0 1 499.80 146.53
  L 498.01 148.80
  A 0.46 0.46 0.0 0 0 498.13 149.47
  Q 500.22 150.80 500.54 152.27
  Q 501.43 156.39 501.41 161.79
  A 0.34 0.34 0.0 0 1 501.09 162.13
  L 497.34 162.36
  A 0.38 0.38 0.0 0 1 496.94 161.97
  Q 496.95 158.31 496.32 153.75
  Q 496.00 151.46 494.00 151.43
  Q 488.47 151.35 482.98 151.86
  A 0.61 0.61 0.0 0 0 482.43 152.50
  L 483.06 162.73
  A 0.54 0.54 0.0 0 1 482.55 163.30
  Z
  M 481.59 138.20
  L 482.13 147.20
  A 0.48 0.48 0.0 0 0 482.64 147.65
  L 492.53 147.06
  A 3.75 3.33 -3.4 0 0 496.08 143.52
  L 495.88 140.20
  A 3.75 3.33 -3.4 0 0 491.94 137.10
  L 482.05 137.69
  A 0.48 0.48 0.0 0 0 481.59 138.20
  Z"
/>
<path fill="#20201e" d="
  M 558.54 134.47
  L 563.35 134.89
  A 0.23 0.23 0.0 0 1 563.49 135.29
  L 549.53 148.07
  A 0.62 0.62 0.0 0 0 549.47 148.92
  L 561.82 163.95
  A 0.37 0.37 0.0 0 1 561.51 164.55
  L 557.00 164.16
  A 2.26 2.25 73.4 0 1 555.40 163.29
  Q 548.63 154.60 545.20 150.48
  Q 544.83 150.03 544.11 149.76
  A 0.76 0.76 0.0 0 0 543.09 150.41
  L 542.06 162.20
  A 0.67 0.66 4.8 0 1 541.35 162.80
  L 538.27 162.52
  A 0.78 0.78 0.0 0 1 537.56 161.68
  L 540.03 133.36
  A 0.51 0.51 0.0 0 1 540.58 132.89
  L 543.95 133.18
  A 0.65 0.65 0.0 0 1 544.54 133.89
  L 543.58 144.91
  A 1.13 1.13 0.0 0 0 545.46 145.84
  L 557.51 134.81
  A 1.37 1.36 26.3 0 1 558.54 134.47
  Z"
/>
<path fill="#20201e" d="
  M 467.47 135.19
  L 467.85 138.34
  A 0.49 0.49 0.0 0 1 467.42 138.89
  L 453.45 140.60
  A 0.49 0.49 0.0 0 0 453.02 141.15
  L 453.91 148.45
  A 0.49 0.49 0.0 0 0 454.46 148.88
  L 467.68 147.27
  A 0.49 0.49 0.0 0 1 468.23 147.70
  L 468.61 150.84
  A 0.49 0.49 0.0 0 1 468.18 151.39
  L 455.00 153.00
  A 0.49 0.49 0.0 0 0 454.57 153.55
  L 455.54 161.51
  A 0.49 0.49 0.0 0 0 456.09 161.94
  L 470.01 160.24
  A 0.49 0.49 0.0 0 1 470.56 160.67
  L 470.94 163.82
  A 0.49 0.49 0.0 0 1 470.51 164.37
  L 452.07 166.62
  A 0.49 0.49 0.0 0 1 451.52 166.19
  L 448.02 137.57
  A 0.49 0.49 0.0 0 1 448.45 137.02
  L 466.92 134.76
  A 0.49 0.49 0.0 0 1 467.47 135.19
  Z"
/>
<path fill="#20201e" d="
  M 617.46 135.54
  L 621.44 136.09
  A 0.31 0.30 24.3 0 1 621.63 136.59
  L 617.23 141.83
  A 1.31 1.30 23.8 0 1 616.05 142.29
  L 613.64 141.95
  A 0.58 0.57 21.5 0 1 613.25 141.05
  L 617.10 135.70
  A 0.39 0.37 20.4 0 1 617.46 135.54
  Z"
/>
<path fill="#20201e" d="
  M 569.21 150.35
  Q 570.02 145.18 571.47 141.47
  C 573.60 135.99 579.42 136.59 584.14 137.33
  C 588.85 138.06 594.57 139.27 594.93 145.14
  Q 595.17 149.12 594.36 154.29
  Q 593.55 159.47 592.11 163.18
  C 589.97 168.65 584.16 168.06 579.44 167.32
  C 574.72 166.58 569.00 165.37 568.64 159.51
  Q 568.40 155.53 569.21 150.35
  Z
  M 590.7647 147.7330
  A 4.98 4.98 0.0 0 0 586.6649 142.0065
  L 580.5087 140.9873
  A 4.98 4.98 0.0 0 0 574.7822 145.0871
  L 572.8353 156.8470
  A 4.98 4.98 0.0 0 0 576.9351 162.5735
  L 583.0913 163.5927
  A 4.98 4.98 0.0 0 0 588.8178 159.4929
  L 590.7647 147.7330
  Z"
/>
<rect fill="#20201e" x="-2.26" y="-14.96" transform="translate(437.59,154.06) rotate(-9.8)" width="4.52" height="29.92" rx="0.81"/>
<path fill="#20201e" d="
  M 623.80 154.61
  L 620.86 154.09
  A 0.73 0.73 0.0 0 1 620.29 153.19
  Q 621.17 149.64 619.65 148.92
  Q 616.19 147.27 610.64 146.63
  A 2.76 2.76 0.0 0 0 607.59 148.89
  L 607.09 151.70
  A 2.67 2.66 -79.4 0 0 609.20 154.79
  C 614.02 155.74 619.21 156.34 621.86 159.19
  A 2.24 2.22 -69.6 0 1 622.46 160.51
  C 622.82 163.91 621.67 173.72 616.64 173.71
  Q 608.71 173.72 601.81 170.41
  C 598.57 168.85 599.26 163.70 600.09 160.78
  A 0.58 0.57 -77.6 0 1 600.74 160.36
  L 603.76 160.90
  A 0.48 0.48 0.0 0 1 604.16 161.39
  L 604.03 165.53
  A 2.45 2.44 -84.2 0 0 606.05 168.01
  L 614.01 169.42
  A 2.95 2.95 0.0 0 0 617.43 167.03
  L 617.97 163.98
  A 2.70 2.70 0.0 0 0 615.86 160.87
  Q 609.45 159.52 606.97 158.78
  C 604.50 158.04 602.52 156.70 602.54 153.67
  C 602.58 150.46 603.56 143.67 607.05 142.64
  C 610.93 141.49 618.85 143.92 622.02 145.30
  C 625.56 146.84 625.41 151.01 624.64 154.07
  A 0.74 0.74 0.0 0 1 623.80 154.61
  Z"
/>
<path fill="#20201e" d="
  M 403.11 161.30
  C 402.07 156.67 399.82 148.67 405.19 146.05
  Q 411.27 143.07 418.31 143.05
  Q 423.54 143.04 425.22 151.22
  A 0.79 0.78 -10.4 0 1 424.58 152.15
  L 421.55 152.64
  A 0.70 0.70 0.0 0 1 420.75 152.08
  Q 419.88 147.69 417.45 147.38
  C 414.89 147.06 410.01 148.15 407.85 149.54
  C 404.99 151.38 406.81 157.15 407.52 160.31
  C 408.23 163.46 409.07 169.45 412.44 169.88
  C 414.99 170.20 419.87 169.09 422.04 167.70
  Q 424.10 166.38 423.01 162.04
  A 0.70 0.70 0.0 0 1 423.49 161.19
  L 426.43 160.33
  A 0.79 0.78 -15.1 0 1 427.41 160.90
  Q 429.41 169.01 424.68 171.24
  Q 418.32 174.25 411.55 174.18
  C 405.57 174.12 404.16 165.93 403.11 161.30
  Z"
/>
<path fill="#20201e" d="
  M 647.93 143.46
  L 651.87 144.28
  A 0.31 0.31 0.0 0 1 652.02 144.79
  L 647.26 149.74
  A 1.32 1.31 27.7 0 1 646.05 150.11
  L 643.67 149.61
  A 0.58 0.58 0.0 0 1 643.33 148.68
  L 647.55 143.59
  A 0.39 0.37 24.2 0 1 647.93 143.46
  Z"
/>
<path fill="#20201e" d="
  M 629.89 162.20
  C 631.25 157.65 633.21 149.58 639.18 149.92
  Q 645.94 150.31 652.08 153.74
  Q 656.64 156.29 654.10 164.24
  A 0.79 0.78 19.0 0 1 653.08 164.74
  L 650.20 163.68
  A 0.70 0.70 0.0 0 1 649.78 162.80
  Q 651.17 158.55 649.20 157.09
  C 647.13 155.56 642.34 154.12 639.78 154.27
  C 636.39 154.47 635.15 160.39 634.22 163.49
  C 633.30 166.59 631.09 172.22 633.82 174.24
  C 635.88 175.77 640.67 177.19 643.25 177.04
  Q 645.70 176.90 646.86 172.59
  A 0.70 0.70 0.0 0 1 647.70 172.08
  L 650.68 172.77
  A 0.79 0.78 14.2 0 1 651.26 173.75
  Q 649.03 181.79 643.82 181.42
  Q 636.80 180.93 630.93 177.55
  C 625.76 174.57 628.54 166.74 629.89 162.20
  Z"
/>
<path fill="#20201e" d="
  M 819.62 735.51
  A 0.70 0.70 0.0 0 0 819.86 736.44
  Q 837.90 747.72 854.01 759.50
  A 1.44 1.44 0.0 0 1 852.82 762.06
  Q 852.14 761.89 850.44 761.07
  Q 832.77 752.53 815.83 743.88
  A 0.94 0.93 -61.1 0 0 814.60 744.24
  C 785.56 793.09 745.39 834.07 697.14 864.14
  Q 626.40 908.23 541.03 915.93
  Q 527.39 917.16 511.51 917.18
  Q 496.05 917.20 481.94 915.98
  Q 394.27 908.36 321.10 861.55
  C 274.83 831.95 236.20 791.94 207.95 744.81
  A 0.64 0.63 -28.5 0 0 207.12 744.57
  L 171.30 761.87
  A 1.70 1.70 0.0 0 1 169.62 758.92
  L 202.66 737.12
  A 0.83 0.83 0.0 0 0 202.93 736.02
  C 166.73 671.23 151.94 595.96 160.87 522.27
  Q 170.42 443.49 212.31 376.80
  Q 249.88 316.98 307.91 275.94
  Q 378.28 226.17 465.39 214.41
  Q 486.68 211.54 507.07 211.62
  A 0.60 0.59 1.5 0 0 507.67 211.06
  L 509.96 169.25
  A 0.70 0.70 0.0 0 1 510.70 168.59
  L 512.17 168.67
  A 0.89 0.88 -2.4 0 1 513.00 169.43
  Q 513.88 176.14 514.19 182.00
  Q 514.22 182.63 514.70 184.34
  A 5.86 5.72 -54.9 0 1 514.92 185.69
  L 516.16 210.78
  A 0.89 0.89 0.0 0 0 517.04 211.63
  Q 530.64 211.71 544.74 213.09
  Q 635.87 222.01 711.08 273.66
  Q 757.69 305.67 792.12 351.09
  C 846.94 423.42 871.85 513.47 861.64 603.98
  Q 853.74 674.04 819.62 735.51
  Z
  M 512.37 193.87
  Q 511.90 198.45 511.90 203.25
  Q 511.82 364.42 511.86 562.99
  A 0.50 0.50 0.0 0 0 512.64 563.41
  L 533.30 549.92
  A 1.35 1.35 0.0 0 0 533.90 548.66
  Q 533.19 541.99 533.14 537.45
  Q 533.08 530.49 532.58 526.06
  Q 532.36 524.10 531.38 507.50
  Q 527.46 440.82 516.70 262.50
  Q 513.82 214.81 512.37 193.87
  Z
  M 506.78 213.81
  Q 422.29 214.74 347.49 254.25
  C 248.29 306.65 179.10 404.45 163.91 515.92
  C 153.57 591.77 167.71 668.17 204.91 735.09
  A 0.52 0.51 59.1 0 0 205.64 735.28
  L 488.43 550.63
  A 1.41 1.41 0.0 0 0 489.05 549.54
  L 507.41 214.46
  A 0.62 0.62 0.0 0 0 506.78 213.81
  Z
  M 535.15 550.36
  Q 535.33 550.67 535.49 550.77
  Q 712.02 666.01 817.05 734.45
  A 0.54 0.54 0.0 0 0 817.82 734.26
  Q 861.97 653.41 861.67 563.10
  C 861.46 501.92 845.21 441.65 814.66 388.81
  C 784.12 335.96 740.01 291.80 687.11 261.08
  Q 609.01 215.73 516.91 213.62
  A 0.54 0.54 0.0 0 0 516.36 214.20
  Q 523.23 339.37 534.96 549.86
  Q 534.97 550.04 535.15 550.36
  Z
  M 187.61 750.84
  L 511.52 563.83
  A 0.38 0.38 0.0 0 0 511.51 563.16
  L 489.86 551.49
  A 0.97 0.95 41.7 0 0 488.86 551.54
  L 187.37 750.46
  A 0.23 0.22 13.0 0 0 187.61 750.84
  Z
  M 833.74 749.36
  L 512.76 564.50
  A 0.38 0.38 0.0 0 0 512.19 564.84
  L 512.92 589.19
  A 0.96 0.94 -78.4 0 0 513.46 590.02
  L 833.53 749.76
  A 0.22 0.22 0.0 0 0 833.74 749.36
  Z
  M 210.26 742.80
  A 0.68 0.67 61.7 0 0 209.98 743.75
  C 268.20 841.92 372.33 906.29 486.29 914.06
  C 555.15 918.75 623.38 903.76 683.57 869.56
  Q 764.32 823.67 812.82 743.01
  A 0.56 0.56 0.0 0 0 812.59 742.22
  L 513.88 590.96
  A 2.42 2.42 0.0 0 0 511.68 590.96
  L 210.26 742.80
  Z"
/>
<path fill="#cfcfcf" d="
  M 512.37 193.87
  Q 513.82 214.81 516.70 262.50
  Q 527.46 440.82 531.38 507.50
  Q 532.36 524.10 532.58 526.06
  Q 533.08 530.49 533.14 537.45
  Q 533.19 541.99 533.90 548.66
  A 1.35 1.35 0.0 0 1 533.30 549.92
  L 512.64 563.41
  A 0.50 0.50 0.0 0 1 511.86 562.99
  Q 511.82 364.42 511.90 203.25
  Q 511.90 198.45 512.37 193.87
  Z"
/>
<path fill="#cfcfcf" d="
  M 187.37 750.46
  L 488.86 551.54
  A 0.97 0.95 41.7 0 1 489.86 551.49
  L 511.51 563.16
  A 0.38 0.38 0.0 0 1 511.52 563.83
  L 187.61 750.84
  A 0.23 0.22 13.0 0 1 187.37 750.46
  Z"
/>
<path fill="#cfcfcf" d="
  M 833.74 749.36
  A 0.22 0.22 0.0 0 1 833.53 749.76
  L 513.46 590.02
  A 0.96 0.94 -78.4 0 1 512.92 589.19
  L 512.19 564.84
  A 0.38 0.38 0.0 0 1 512.76 564.50
  L 833.74 749.36
  Z"
/>
<path fill="#20201e" d="
  M 119.39 653.26
  L 120.44 657.99
  A 0.23 0.23 0.0 0 1 120.10 658.24
  L 103.66 648.75
  A 0.62 0.62 0.0 0 0 102.83 648.95
  L 92.18 665.31
  A 0.37 0.37 0.0 0 1 91.51 665.19
  L 90.52 660.76
  A 2.27 2.25 -34.1 0 1 90.87 658.97
  Q 97.14 649.86 100.04 645.34
  Q 100.36 644.85 100.40 644.08
  A 0.76 0.76 0.0 0 0 99.47 643.30
  L 87.89 645.88
  A 0.67 0.66 77.2 0 1 87.10 645.38
  L 86.43 642.35
  A 0.78 0.78 0.0 0 1 87.02 641.42
  L 114.86 635.22
  A 0.51 0.51 0.0 0 1 115.47 635.61
  L 116.21 638.92
  A 0.66 0.66 0.0 0 1 115.71 639.70
  L 104.88 642.11
  A 1.13 1.13 0.0 0 0 104.56 644.19
  L 118.75 652.38
  A 1.37 1.36 -81.2 0 1 119.39 653.26
  Z"
/>
<path fill="#20201e" d="
  M 120.78 684.25
  A 0.17 0.17 0.0 0 0 120.68 683.93
  L 97.16 684.43
  A 0.77 0.76 -9.1 0 1 96.41 683.89
  L 95.11 679.67
  A 0.90 0.89 -26.2 0 1 95.45 678.67
  L 119.88 661.49
  A 0.64 0.64 0.0 0 1 120.86 661.86
  L 121.55 664.60
  A 1.30 1.30 0.0 0 1 121.03 665.98
  L 100.91 679.86
  A 0.23 0.22 -63.0 0 0 101.04 680.27
  L 125.78 679.63
  A 0.74 0.74 0.0 0 1 126.50 680.14
  L 127.81 684.24
  A 0.82 0.81 64.2 0 1 127.49 685.16
  L 107.42 698.62
  A 0.25 0.25 0.0 0 0 107.56 699.08
  L 131.85 699.02
  A 0.93 0.92 81.6 0 1 132.74 699.68
  L 133.62 702.63
  A 0.55 0.55 0.0 0 1 133.08 703.33
  L 102.94 703.31
  A 0.55 0.54 80.3 0 1 102.41 702.93
  L 101.09 698.59
  A 0.95 0.95 0.0 0 1 101.45 697.54
  L 120.78 684.25
  Z"
/>
<path fill="#20201e" d="
  M 904.42 697.05
  Q 898.57 687.95 898.16 687.35
  A 0.25 0.24 -52.9 0 0 897.73 687.42
  L 892.56 702.66
  A 0.94 0.93 18.6 0 1 891.38 703.24
  L 889.24 702.51
  A 0.95 0.94 -71.5 0 1 888.65 701.31
  L 895.63 680.78
  A 0.69 0.68 -73.9 0 1 896.44 680.33
  Q 898.21 680.78 899.17 681.47
  A 2.16 1.89 84.3 0 1 899.52 681.79
  Q 899.58 681.87 907.95 694.90
  Q 913.80 703.99 914.21 704.59
  A 0.25 0.24 -52.9 0 0 914.64 704.53
  L 919.81 689.29
  A 0.94 0.93 18.6 0 1 920.99 688.71
  L 923.13 689.44
  A 0.95 0.94 -71.5 0 1 923.72 690.64
  L 916.74 711.17
  A 0.69 0.68 -73.9 0 1 915.93 711.62
  Q 914.16 711.17 913.20 710.48
  A 2.16 1.89 84.3 0 1 912.85 710.15
  Q 912.79 710.08 904.42 697.05
  Z"
/>
<path fill="#20201e" d="
  M 892.17 732.53
  C 887.78 730.76 879.94 728.05 880.84 722.16
  Q 881.86 715.47 885.84 709.69
  Q 888.80 705.39 896.47 708.66
  A 0.78 0.78 0.0 0 1 896.87 709.72
  L 895.55 712.48
  A 0.70 0.70 0.0 0 1 894.63 712.82
  Q 890.54 711.04 888.91 712.86
  C 887.19 714.78 885.31 719.40 885.22 721.96
  C 885.10 725.35 890.87 727.14 893.86 728.35
  C 896.85 729.56 902.25 732.28 904.52 729.76
  C 906.23 727.85 908.09 723.22 908.18 720.65
  Q 908.27 718.20 904.09 716.64
  A 0.70 0.70 0.0 0 1 903.67 715.76
  L 904.63 712.86
  A 0.78 0.78 0.0 0 1 905.66 712.37
  Q 913.44 715.35 912.59 720.49
  Q 911.44 727.42 907.53 732.94
  C 904.08 737.80 896.56 734.31 892.17 732.53
  Z"
/>
<path fill="#20201e" d="
  M 138.96 715.20
  Q 139.44 716.40 139.71 717.21
  A 0.92 0.92 0.0 0 1 139.45 718.18
  L 116.70 738.47
  A 0.43 0.43 0.0 0 1 116.01 738.29
  L 114.78 734.80
  A 0.76 0.76 0.0 0 1 114.99 733.98
  L 118.79 730.59
  A 1.04 1.03 -31.6 0 0 119.07 729.44
  Q 118.84 728.86 116.91 724.02
  Q 114.97 719.18 114.73 718.61
  A 1.04 1.03 -12.0 0 0 113.74 717.97
  L 108.65 718.14
  A 0.76 0.76 0.0 0 1 107.93 717.69
  L 106.42 714.31
  A 0.43 0.43 0.0 0 1 106.79 713.71
  L 137.26 712.70
  A 0.92 0.92 0.0 0 1 138.11 713.23
  Q 138.48 714.00 138.96 715.20
  Z
  M 119.33 717.70
  A 0.36 0.36 0.0 0 0 119.01 718.19
  L 122.44 726.76
  A 0.36 0.36 0.0 0 0 123.01 726.90
  L 133.45 717.76
  A 0.36 0.36 0.0 0 0 133.19 717.12
  L 119.33 717.70
  Z"
/>
<path fill="#20201e" d="
  M 898.54 753.52
  Q 898.04 754.54 897.76 754.92
  A 0.80 0.79 -58.5 0 1 896.77 755.16
  L 886.66 750.21
  A 1.61 1.58 53.9 0 0 885.76 750.06
  L 866.06 752.47
  A 0.13 0.13 0.0 0 1 865.93 752.28
  L 868.16 747.87
  A 0.57 0.54 -78.5 0 1 868.59 747.57
  Q 874.76 746.99 882.64 746.06
  Q 882.92 746.03 882.99 745.88
  Q 883.06 745.74 882.92 745.50
  Q 878.83 738.70 875.51 733.47
  A 0.57 0.54 -49.3 0 1 875.48 732.94
  L 877.60 728.48
  A 0.13 0.13 0.0 0 1 877.83 728.47
  L 887.99 745.52
  A 1.61 1.58 -1.7 0 0 888.66 746.14
  L 898.76 751.11
  A 0.80 0.79 -69.3 0 1 899.17 752.03
  Q 899.05 752.49 898.54 753.52
  Z"
/>
<path fill="#20201e" d="
  M 145.99 752.20
  L 144.56 749.58
  A 0.73 0.73 0.0 0 1 144.91 748.56
  Q 148.23 747.03 147.85 745.39
  Q 146.97 741.66 144.00 736.92
  A 2.77 2.77 0.0 0 0 140.32 735.95
  L 137.82 737.32
  A 2.68 2.66 -28.1 0 0 136.72 740.89
  C 138.99 745.26 141.77 749.69 141.20 753.55
  A 2.24 2.22 -18.3 0 1 140.54 754.84
  C 138.10 757.25 129.73 762.48 126.58 758.55
  Q 121.62 752.36 119.89 744.89
  C 119.08 741.38 123.54 738.69 126.35 737.52
  A 0.58 0.57 -26.2 0 1 127.08 737.77
  L 128.55 740.47
  A 0.48 0.48 0.0 0 1 128.41 741.08
  L 125.10 743.57
  A 2.46 2.45 -32.8 0 0 124.41 746.70
  L 128.29 753.81
  A 2.95 2.95 0.0 0 0 132.30 754.98
  L 135.02 753.50
  A 2.71 2.70 -27.7 0 0 136.14 749.90
  Q 133.18 744.06 132.21 741.64
  C 131.25 739.26 131.05 736.87 133.43 734.99
  C 135.97 733.01 141.89 729.53 144.87 731.62
  C 148.20 733.94 151.25 741.65 152.16 744.99
  C 153.17 748.72 149.82 751.20 146.94 752.51
  A 0.74 0.74 0.0 0 1 145.99 752.20
  Z"
/>
<path fill="#20201e" d="
  M 143.29 759.81
  Q 147.84 757.22 151.65 756.04
  C 157.26 754.30 160.41 759.22 162.78 763.36
  C 165.14 767.51 167.76 772.74 163.40 776.68
  Q 160.44 779.35 155.89 781.94
  Q 151.33 784.53 147.53 785.71
  C 141.92 787.46 138.76 782.54 136.40 778.39
  C 134.03 774.24 131.41 769.01 135.78 765.08
  Q 138.74 762.41 143.29 759.81
  Z
  M 157.4835 762.7354
  A 5.09 5.09 0.0 0 0 150.5144 760.9331
  L 140.4333 766.8713
  A 5.09 5.09 0.0 0 0 138.6310 773.8403
  L 141.6965 779.0446
  A 5.09 5.09 0.0 0 0 148.6656 780.8469
  L 158.7467 774.9087
  A 5.09 5.09 0.0 0 0 160.5490 767.9397
  L 157.4835 762.7354
  Z"
/>
<path fill="#20201e" d="
  M 853.63 774.88
  A 0.54 0.54 0.0 0 1 853.43 774.14
  L 860.65 761.53
  A 9.75 9.59 -60.2 0 1 873.82 757.84
  L 882.98 763.09
  A 9.75 9.59 -60.2 0 1 886.46 776.31
  L 879.23 788.92
  A 0.54 0.54 0.0 0 1 878.50 789.12
  L 853.63 774.88
  Z
  M 859.40 773.00
  L 877.20 783.19
  A 0.49 0.49 0.0 0 0 877.87 783.01
  L 882.58 774.78
  A 5.97 5.85 29.8 0 0 880.31 766.74
  L 872.01 761.99
  A 5.97 5.85 29.8 0 0 863.93 764.10
  L 859.21 772.33
  A 0.49 0.49 0.0 0 0 859.40 773.00
  Z"
/>
<path fill="#20201e" d="
  M 152.95 804.73
  L 150.06 800.35
  A 0.31 0.31 0.0 0 1 150.07 800.00
  L 168.46 775.60
  A 0.31 0.31 0.0 0 1 168.96 775.62
  L 171.06 778.80
  A 0.31 0.31 0.0 0 1 171.05 779.15
  L 156.15 798.92
  A 0.31 0.31 0.0 0 0 156.50 799.40
  L 179.77 791.20
  A 0.31 0.31 0.0 0 1 180.13 791.32
  L 182.90 795.50
  A 0.31 0.31 0.0 0 1 182.88 795.87
  L 167.90 814.82
  A 0.31 0.31 0.0 0 0 168.24 815.31
  L 191.57 807.79
  A 0.31 0.31 0.0 0 1 191.92 807.92
  L 194.00 811.07
  A 0.31 0.31 0.0 0 1 193.84 811.54
  L 164.71 820.92
  A 0.31 0.31 0.0 0 1 164.36 820.79
  L 161.59 816.59
  A 0.31 0.31 0.0 0 1 161.60 816.24
  L 175.66 797.58
  A 0.31 0.31 0.0 0 0 175.31 797.10
  L 153.31 804.85
  A 0.31 0.31 0.0 0 1 152.95 804.73
  Z"
/>
<path fill="#20201e" d="
  M 132.07 783.07
  A 0.24 0.24 0.0 0 1 131.99 783.40
  L 131.89 783.46
  A 37.45 1.51 -30.0 0 1 98.70 800.87
  L 98.58 800.67
  A 37.45 1.51 -30.0 0 1 130.26 780.63
  L 130.36 780.58
  A 0.24 0.24 0.0 0 1 130.68 780.67
  L 132.07 783.07
  Z"
/>
<path fill="#20201e" d="
  M 893.29 780.67
  A 0.26 0.26 0.0 0 1 893.65 780.57
  L 893.82 780.67
  A 37.28 1.53 30.0 0 1 925.34 800.64
  L 925.24 800.81
  A 37.28 1.53 30.0 0 1 892.19 783.50
  L 892.02 783.40
  A 0.26 0.26 0.0 0 1 891.92 783.04
  L 893.29 780.67
  Z"
/>
<path fill="#20201e" d="
  M 863.32 786.23
  Q 867.66 789.15 870.42 792.03
  C 874.48 796.28 871.48 801.29 868.82 805.26
  C 866.16 809.22 862.65 813.89 857.18 811.74
  Q 853.47 810.28 849.12 807.36
  Q 844.77 804.44 842.02 801.56
  C 837.96 797.31 840.96 792.30 843.62 788.33
  C 846.28 784.37 849.79 779.70 855.26 781.85
  Q 858.97 783.31 863.32 786.23
  Z
  M 866.9777 800.5058
  A 5.08 5.08 0.0 0 0 865.6562 793.4442
  L 855.9363 786.7889
  A 5.08 5.08 0.0 0 0 848.8747 788.1105
  L 845.4623 793.0942
  A 5.08 5.08 0.0 0 0 846.7838 800.1558
  L 856.5037 806.8111
  A 5.08 5.08 0.0 0 0 863.5653 805.4895
  L 866.9777 800.5058
  Z"
/>
<path fill="#20201e" d="
  M 87.25 800.55
  L 83.59 802.97
  A 0.55 0.54 58.5 0 0 83.42 803.70
  L 88.95 813.28
  A 0.52 0.51 57.7 0 0 89.69 813.45
  L 93.63 810.78
  Q 93.58 811.36 93.74 811.98
  A 0.84 0.84 0.0 0 1 93.39 812.89
  L 90.83 814.58
  A 0.67 0.67 0.0 0 1 89.90 814.39
  L 89.69 814.07
  A 0.98 0.98 0.0 0 0 88.11 814.00
  Q 82.14 821.47 80.23 828.70
  C 78.88 833.82 79.89 839.87 84.63 842.97
  A 1.76 1.75 -25.2 0 0 85.47 843.27
  Q 89.42 843.62 89.71 839.48
  Q 89.77 838.65 89.86 838.41
  A 0.87 0.87 0.0 0 1 91.50 838.45
  Q 95.27 849.96 85.09 854.75
  C 77.60 858.28 69.30 851.14 66.67 844.55
  Q 63.70 837.11 68.57 831.65
  Q 69.25 831.54 69.54 831.81
  Q 70.02 832.25 69.61 832.73
  C 63.92 839.27 69.15 848.79 75.47 852.54
  Q 78.93 854.59 82.95 854.08
  A 0.37 0.37 0.0 0 0 83.06 853.37
  C 77.57 850.86 73.50 846.05 73.16 840.00
  Q 72.89 835.41 74.74 831.98
  Q 77.83 826.23 81.49 819.14
  A 0.14 0.14 0.0 0 0 81.25 818.99
  Q 75.91 825.62 68.69 830.43
  Q 66.61 831.51 64.46 832.63
  Q 50.82 839.71 36.26 840.17
  Q 33.53 840.26 31.60 840.05
  A 0.39 0.39 0.0 0 1 31.30 839.48
  Q 40.72 822.16 58.00 812.79
  Q 58.18 812.69 58.23 812.58
  Q 58.29 812.45 58.31 812.28
  Q 58.34 812.34 58.39 812.37
  A 0.39 0.18 37.4 0 0 58.70 812.44
  Q 66.89 808.68 75.87 807.35
  A 0.11 0.11 0.0 0 0 75.86 807.13
  Q 64.56 806.69 63.31 806.66
  Q 57.78 806.53 55.79 805.69
  C 48.75 802.72 44.86 796.58 45.73 788.89
  A 0.44 0.44 0.0 0 0 44.96 788.54
  Q 43.77 789.85 43.32 791.56
  Q 40.93 800.57 47.68 807.65
  Q 51.23 811.38 56.20 810.69
  Q 57.01 810.58 57.32 810.80
  Q 57.78 811.12 57.90 811.83
  Q 51.34 813.49 46.72 808.80
  C 42.14 804.15 39.64 797.07 41.86 791.01
  C 43.85 785.58 50.93 781.91 56.46 784.12
  Q 60.23 785.61 62.83 788.93
  A 0.63 0.63 0.0 0 1 62.36 789.94
  C 61.11 789.98 59.87 789.09 58.54 789.29
  C 55.60 789.72 54.99 791.93 55.71 794.54
  C 56.83 798.67 60.81 802.06 65.17 803.23
  Q 73.02 805.34 80.82 804.02
  Q 83.09 803.64 82.79 802.14
  A 0.79 0.78 69.7 0 1 83.18 801.29
  Q 85.88 799.82 86.03 799.74
  Q 86.92 799.27 87.25 800.55
  Z
  M 33.94 838.44
  Q 34.11 838.74 35.25 838.70
  C 55.76 838.11 74.61 829.15 84.73 810.68
  Q 85.10 810.00 84.75 809.40
  Q 84.44 808.85 83.67 808.83
  C 62.62 808.12 45.31 819.78 34.35 837.13
  Q 33.74 838.09 33.94 838.44
  Z"
/>
<path fill="#20201e" d="
  M 966.12 811.71
  Q 966.39 810.38 967.25 810.53
  Q 972.26 811.41 975.56 808.36
  Q 983.27 801.24 980.64 791.17
  Q 980.39 790.21 978.95 788.50
  A 0.35 0.35 0.0 0 0 978.35 788.62
  Q 978.25 788.94 978.33 791.11
  C 978.54 797.13 975.12 802.19 969.94 804.95
  Q 966.70 806.67 960.94 806.64
  Q 958.95 806.63 948.32 807.11
  A 0.16 0.09 0.4 0 0 948.19 807.18
  Q 948.18 807.22 948.18 807.27
  A 0.27 0.19 3.9 0 0 948.41 807.46
  Q 957.38 808.68 965.64 812.57
  Q 983.28 822.03 992.74 839.53
  A 0.41 0.41 0.0 0 1 992.39 840.14
  Q 974.50 840.60 958.91 832.28
  Q 957.11 831.33 955.35 830.45
  Q 948.22 825.54 942.74 818.99
  A 0.11 0.11 0.0 0 0 942.56 819.11
  Q 944.92 823.97 948.89 831.37
  C 953.46 839.88 949.72 849.56 941.00 853.30
  A 0.41 0.41 0.0 0 0 941.15 854.09
  Q 948.36 854.29 952.78 849.10
  C 956.61 844.59 958.64 838.02 954.69 833.08
  Q 954.24 832.52 954.42 832.11
  Q 954.61 831.65 955.26 831.47
  Q 958.75 835.00 958.44 838.76
  Q 957.54 849.61 948.00 854.46
  Q 942.66 857.18 937.46 854.01
  Q 928.95 848.83 932.48 838.68
  Q 932.64 838.24 933.13 837.93
  A 0.69 0.69 0.0 0 1 934.19 838.53
  Q 934.12 843.56 938.64 843.26
  A 1.90 1.82 22.7 0 0 939.68 842.86
  C 949.37 835.28 941.78 821.14 935.87 814.13
  A 1.05 1.04 43.9 0 0 934.25 814.16
  Q 934.20 814.23 934.07 814.42
  A 0.47 0.45 -58.0 0 1 933.48 814.57
  L 930.47 812.95
  A 0.61 0.59 8.7 0 1 930.18 812.57
  Q 930.04 811.96 930.58 811.14
  L 934.31 813.27
  A 0.62 0.62 0.0 0 0 935.16 813.04
  L 940.64 803.55
  A 0.30 0.30 0.0 0 0 940.55 803.15
  L 936.70 800.52
  Q 937.03 799.24 937.72 799.60
  Q 939.04 800.28 940.66 801.18
  A 0.98 0.97 15.7 0 1 941.16 802.06
  Q 941.10 803.77 943.29 804.06
  C 952.28 805.27 964.84 804.55 968.19 794.77
  Q 969.70 790.38 965.59 789.23
  A 2.12 2.06 -46.0 0 0 964.39 789.27
  Q 962.22 790.02 961.47 789.91
  A 0.58 0.58 0.0 0 1 961.10 788.97
  Q 964.09 785.39 967.34 784.15
  C 972.84 782.04 978.79 785.04 981.79 789.82
  A 2.89 2.78 23.3 0 1 982.17 790.72
  Q 984.92 802.19 976.23 809.74
  Q 971.91 813.48 966.12 811.71
  Z
  M 990.04 838.41
  Q 990.23 838.06 989.63 837.10
  C 978.67 819.75 961.37 808.10 940.33 808.80
  Q 939.56 808.82 939.24 809.37
  Q 938.90 809.97 939.27 810.65
  C 949.38 829.12 968.22 838.08 988.73 838.68
  Q 989.86 838.71 990.04 838.41
  Z"
/>
<path fill="#20201e" d="
  M 936.07 800.76
  L 930.36 810.66
  Q 927.33 810.01 925.42 811.67
  A 2.67 2.55 57.7 0 0 924.80 814.73
  C 925.38 816.01 927.44 815.88 929.17 815.95
  A 0.83 0.83 0.0 0 1 929.59 817.48
  Q 922.49 822.05 918.23 817.66
  Q 914.73 814.08 915.72 809.83
  C 917.13 803.83 925.66 804.90 930.50 806.07
  A 0.73 0.70 -52.0 0 0 931.00 806.00
  Q 931.61 805.66 931.70 804.82
  Q 932.93 803.84 931.90 802.99
  C 929.06 799.59 923.73 793.43 927.68 788.82
  C 930.29 785.78 936.12 785.59 939.03 788.29
  C 941.28 790.39 941.84 793.71 941.58 796.65
  A 0.87 0.87 0.0 0 1 939.97 797.02
  L 938.77 795.05
  A 1.12 1.04 9.3 0 0 938.60 794.83
  Q 937.24 793.28 935.60 794.33
  C 933.37 795.75 934.63 799.17 936.07 800.76
  Z
  M 939.65 792.03
  L 938.95 790.67
  A 4.13 4.12 88.1 0 0 936.95 788.79
  Q 932.66 786.90 929.63 789.28
  C 925.31 792.68 929.93 798.43 932.77 801.77
  A 0.73 0.73 0.0 0 0 934.00 801.04
  C 933.08 798.62 932.11 795.78 933.84 793.86
  Q 935.89 791.57 938.75 792.97
  A 0.69 0.68 89.2 0 0 939.65 792.03
  Z
  M 924.66 818.14
  A 0.68 0.68 0.0 0 0 925.00 816.89
  Q 922.34 815.16 923.26 812.23
  C 924.02 809.77 926.94 809.15 929.48 808.70
  A 0.72 0.72 0.0 0 0 929.47 807.27
  C 925.17 806.55 917.89 805.53 917.19 810.97
  Q 916.69 814.79 920.50 817.49
  A 4.12 4.11 -29.0 0 0 923.13 818.24
  L 924.66 818.14
  Z"
/>
<path fill="#20201e" d="
  M 92.28 802.85
  Q 91.54 803.19 91.53 803.82
  A 0.46 0.41 29.2 0 0 91.62 804.08
  L 92.37 805.02
  Q 92.39 805.86 93.07 806.14
  A 0.63 0.60 -42.1 0 0 93.46 806.15
  Q 99.58 804.34 104.90 805.87
  A 2.95 2.91 -16.8 0 1 105.96 806.43
  C 111.37 810.89 107.33 819.38 100.97 819.83
  A 3.53 3.35 46.5 0 1 100.03 819.78
  Q 96.88 819.20 94.45 817.55
  A 0.88 0.88 0.0 0 1 94.90 815.95
  C 96.67 815.86 98.80 816.10 99.29 814.41
  C 100.24 811.17 95.77 809.94 93.63 810.78
  L 87.89 800.82
  Q 90.17 798.36 89.27 795.38
  A 1.66 1.64 -78.4 0 0 88.75 794.58
  C 86.18 792.43 85.14 795.56 84.01 796.94
  A 0.99 0.98 -24.9 0 1 82.26 796.30
  Q 82.45 786.65 89.88 786.46
  C 93.75 786.37 97.00 787.90 97.69 791.92
  A 3.32 3.26 44.4 0 1 97.71 792.94
  C 97.16 797.10 94.69 799.61 92.28 802.85
  Z
  M 84.37 792.07
  A 0.68 0.68 0.0 0 0 85.28 792.99
  Q 88.12 791.58 90.18 793.86
  C 91.92 795.76 90.96 798.59 90.06 801.01
  A 0.72 0.72 0.0 0 0 91.29 801.73
  C 94.10 798.39 98.67 792.63 94.34 789.27
  Q 91.31 786.90 87.05 788.82
  A 4.12 4.11 -88.5 0 0 85.07 790.70
  L 84.37 792.07
  Z
  M 99.35 818.21
  L 100.89 818.30
  A 4.16 4.15 28.8 0 0 103.54 817.53
  Q 107.37 814.79 106.86 810.94
  C 106.13 805.46 98.79 806.52 94.45 807.27
  A 0.73 0.73 0.0 0 0 94.45 808.70
  C 97.01 809.15 99.97 809.76 100.74 812.24
  Q 101.68 815.19 99.00 816.95
  A 0.69 0.69 0.0 0 0 99.35 818.21
  Z"
/>
<path fill="#cfcfcf" d="
  M 84.37 792.07
  L 85.07 790.70
  A 4.12 4.11 -88.5 0 1 87.05 788.82
  Q 91.31 786.90 94.34 789.27
  C 98.67 792.63 94.10 798.39 91.29 801.73
  A 0.72 0.72 0.0 0 1 90.06 801.01
  C 90.96 798.59 91.92 795.76 90.18 793.86
  Q 88.12 791.58 85.28 792.99
  A 0.68 0.68 0.0 0 1 84.37 792.07
  Z"
/>
<path fill="#cfcfcf" d="
  M 939.65 792.03
  A 0.69 0.68 89.2 0 1 938.75 792.97
  Q 935.89 791.57 933.84 793.86
  C 932.11 795.78 933.08 798.62 934.00 801.04
  A 0.73 0.73 0.0 0 1 932.77 801.77
  C 929.93 798.43 925.31 792.68 929.63 789.28
  Q 932.66 786.90 936.95 788.79
  A 4.13 4.12 88.1 0 1 938.95 790.67
  L 939.65 792.03
  Z"
/>
<path fill="#cfcfcf" d="
  M 58.31 812.28
  Q 58.12 812.19 57.90 811.83
  Q 57.78 811.12 57.32 810.80
  Q 57.01 810.58 56.20 810.69
  Q 51.23 811.38 47.68 807.65
  Q 40.93 800.57 43.32 791.56
  Q 43.77 789.85 44.96 788.54
  A 0.44 0.44 0.0 0 1 45.73 788.89
  C 44.86 796.58 48.75 802.72 55.79 805.69
  Q 57.78 806.53 63.31 806.66
  Q 64.56 806.69 75.86 807.13
  A 0.11 0.11 0.0 0 1 75.87 807.35
  Q 66.89 808.68 58.70 812.44
  A 0.39 0.18 37.4 0 1 58.39 812.37
  Q 58.34 812.34 58.31 812.28
  Z"
/>
<path fill="#cfcfcf" d="
  M 966.12 811.71
  Q 965.82 812.05 965.64 812.57
  Q 957.38 808.68 948.41 807.46
  A 0.27 0.19 3.9 0 1 948.18 807.27
  Q 948.18 807.22 948.19 807.18
  A 0.16 0.09 0.4 0 1 948.32 807.11
  Q 958.95 806.63 960.94 806.64
  Q 966.70 806.67 969.94 804.95
  C 975.12 802.19 978.54 797.13 978.33 791.11
  Q 978.25 788.94 978.35 788.62
  A 0.35 0.35 0.0 0 1 978.95 788.50
  Q 980.39 790.21 980.64 791.17
  Q 983.27 801.24 975.56 808.36
  Q 972.26 811.41 967.25 810.53
  Q 966.39 810.38 966.12 811.71
  Z"
/>
<path fill="#cfcfcf" d="
  M 87.25 800.55
  Q 87.81 800.51 87.89 800.82
  L 93.63 810.78
  L 89.69 813.45
  A 0.52 0.51 57.7 0 1 88.95 813.28
  L 83.42 803.70
  A 0.55 0.54 58.5 0 1 83.59 802.97
  L 87.25 800.55
  Z"
/>
<path fill="#cfcfcf" d="
  M 936.70 800.52
  L 940.55 803.15
  A 0.30 0.30 0.0 0 1 940.64 803.55
  L 935.16 813.04
  A 0.62 0.62 0.0 0 1 934.31 813.27
  L 930.58 811.14
  L 930.36 810.66
  L 936.07 800.76
  Q 936.01 800.41 936.70 800.52
  Z"
/>
<path fill="#cfcfcf" d="
  M 92.28 802.85
  Q 93.62 804.05 92.37 805.02
  L 91.62 804.08
  A 0.46 0.41 29.2 0 1 91.53 803.82
  Q 91.54 803.19 92.28 802.85
  Z"
/>
<path fill="#cfcfcf" d="
  M 931.90 802.99
  Q 932.93 803.84 931.70 804.82
  Q 930.22 804.08 931.90 802.99
  Z"
/>
<path fill="#cfcfcf" d="
  M 99.35 818.21
  A 0.69 0.69 0.0 0 1 99.00 816.95
  Q 101.68 815.19 100.74 812.24
  C 99.97 809.76 97.01 809.15 94.45 808.70
  A 0.73 0.73 0.0 0 1 94.45 807.27
  C 98.79 806.52 106.13 805.46 106.86 810.94
  Q 107.37 814.79 103.54 817.53
  A 4.16 4.15 28.8 0 1 100.89 818.30
  L 99.35 818.21
  Z"
/>
<path fill="#cfcfcf" d="
  M 924.66 818.14
  L 923.13 818.24
  A 4.12 4.11 -29.0 0 1 920.50 817.49
  Q 916.69 814.79 917.19 810.97
  C 917.89 805.53 925.17 806.55 929.47 807.27
  A 0.72 0.72 0.0 0 1 929.48 808.70
  C 926.94 809.15 924.02 809.77 923.26 812.23
  Q 922.34 815.16 925.00 816.89
  A 0.68 0.68 0.0 0 1 924.66 818.14
  Z"
/>
<path fill="#cfcfcf" d="
  M 84.75 809.40
  Q 85.10 810.00 84.73 810.68
  C 74.61 829.15 55.76 838.11 35.25 838.70
  Q 34.11 838.74 33.94 838.44
  Q 33.74 838.09 34.35 837.13
  C 45.31 819.78 62.62 808.12 83.67 808.83
  Q 84.44 808.85 84.75 809.40
  Z
  M 81.70 809.99
  C 68.80 810.89 56.33 814.75 46.87 824.12
  Q 40.69 830.26 36.25 836.38
  A 0.30 0.30 0.0 0 0 36.64 836.82
  L 81.91 810.68
  A 0.37 0.37 0.0 0 0 81.70 809.99
  Z"
/>
<path fill="#cfcfcf" d="
  M 990.04 838.41
  Q 989.86 838.71 988.73 838.68
  C 968.22 838.08 949.38 829.12 939.27 810.65
  Q 938.90 809.97 939.24 809.37
  Q 939.56 808.82 940.33 808.80
  C 961.37 808.10 978.67 819.75 989.63 837.10
  Q 990.23 838.06 990.04 838.41
  Z
  M 942.37 809.99
  A 0.37 0.37 0.0 0 0 942.16 810.68
  L 987.37 836.81
  A 0.30 0.30 0.0 0 0 987.76 836.38
  Q 983.33 830.26 977.16 824.12
  C 967.72 814.76 955.26 810.89 942.37 809.99
  Z"
/>
<path fill="#20201e" d="
  M 81.70 809.99
  A 0.37 0.37 0.0 0 1 81.91 810.68
  L 36.64 836.82
  A 0.30 0.30 0.0 0 1 36.25 836.38
  Q 40.69 830.26 46.87 824.12
  C 56.33 814.75 68.80 810.89 81.70 809.99
  Z"
/>
<path fill="#20201e" d="
  M 942.37 809.99
  C 955.26 810.89 967.72 814.76 977.16 824.12
  Q 983.33 830.26 987.76 836.38
  A 0.30 0.30 0.0 0 1 987.37 836.81
  L 942.16 810.68
  A 0.37 0.37 0.0 0 1 942.37 809.99
  Z"
/>
<path fill="#20201e" d="
  M 834.39 827.66
  L 833.97 824.20
  A 0.31 0.31 0.0 0 0 833.85 823.99
  L 823.79 816.41
  A 0.31 0.31 0.0 0 1 823.73 815.97
  L 826.09 812.83
  A 0.31 0.31 0.0 0 1 826.53 812.77
  L 832.36 817.17
  A 0.31 0.31 0.0 0 0 832.85 816.88
  L 832.59 814.76
  A 0.31 0.31 0.0 0 1 833.08 814.47
  L 836.73 817.22
  A 0.31 0.31 0.0 0 1 836.85 817.43
  L 837.27 820.91
  A 0.31 0.31 0.0 0 0 837.39 821.12
  L 846.47 827.96
  A 0.31 0.31 0.0 0 0 846.91 827.90
  L 855.08 817.05
  A 0.31 0.31 0.0 0 1 855.52 816.99
  L 858.31 819.09
  A 0.31 0.31 0.0 0 1 858.37 819.53
  L 847.47 834.00
  A 0.31 0.31 0.0 0 1 847.03 834.06
  L 838.91 827.95
  A 0.31 0.31 0.0 0 0 838.42 828.23
  L 838.68 830.35
  A 0.31 0.31 0.0 0 1 838.19 830.64
  L 834.51 827.87
  A 0.31 0.31 0.0 0 1 834.39 827.66
  Z"
/>
<path fill="#20201e" d="
  M 203.84 821.95
  C 206.93 825.59 210.46 830.25 206.90 834.93
  Q 204.48 838.10 200.48 841.48
  Q 196.48 844.87 192.96 846.73
  C 187.76 849.48 183.75 845.23 180.66 841.58
  C 177.57 837.94 174.03 833.28 177.60 828.60
  Q 180.02 825.43 184.02 822.04
  Q 188.02 818.66 191.54 816.79
  C 196.74 814.05 200.75 818.30 203.84 821.95
  Z
  M 198.5656 822.3178
  A 4.99 4.99 0.0 0 0 191.5304 821.7641
  L 182.4815 829.4925
  A 4.99 4.99 0.0 0 0 181.9279 836.5277
  L 185.9544 841.2422
  A 4.99 4.99 0.0 0 0 192.9896 841.7959
  L 202.0385 834.0675
  A 4.99 4.99 0.0 0 0 202.5921 827.0323
  L 198.5656 822.3178
  Z"
/>
<path fill="#cfcfcf" d="
  M 68.57 831.65
  Q 69.09 831.68 68.69 830.43
  Q 75.91 825.62 81.25 818.99
  A 0.14 0.14 0.0 0 1 81.49 819.14
  Q 77.83 826.23 74.74 831.98
  Q 72.89 835.41 73.16 840.00
  C 73.50 846.05 77.57 850.86 83.06 853.37
  A 0.37 0.37 0.0 0 1 82.95 854.08
  Q 78.93 854.59 75.47 852.54
  C 69.15 848.79 63.92 839.27 69.61 832.73
  Q 70.02 832.25 69.54 831.81
  Q 69.25 831.54 68.57 831.65
  Z"
/>
<path fill="#cfcfcf" d="
  M 955.35 830.45
  Q 955.18 830.96 955.26 831.47
  Q 954.61 831.65 954.42 832.11
  Q 954.24 832.52 954.69 833.08
  C 958.64 838.02 956.61 844.59 952.78 849.10
  Q 948.36 854.29 941.15 854.09
  A 0.41 0.41 0.0 0 1 941.00 853.30
  C 949.72 849.56 953.46 839.88 948.89 831.37
  Q 944.92 823.97 942.56 819.11
  A 0.11 0.11 0.0 0 1 942.74 818.99
  Q 948.22 825.54 955.35 830.45
  Z"
/>
<path fill="#20201e" d="
  M 825.71 827.56
  L 823.86 829.90
  A 0.73 0.73 0.0 0 1 822.79 829.98
  Q 820.08 827.52 818.72 828.52
  Q 815.63 830.79 812.43 835.38
  A 2.77 2.77 0.0 0 0 812.98 839.14
  L 815.22 840.91
  A 2.68 2.66 38.9 0 0 818.94 840.52
  C 822.07 836.72 825.06 832.43 828.83 831.44
  A 2.24 2.22 48.7 0 1 830.28 831.54
  C 833.45 832.84 841.55 838.50 839.16 842.94
  Q 835.41 849.93 829.21 854.44
  C 826.30 856.56 822.08 853.51 819.90 851.39
  A 0.58 0.57 40.7 0 1 819.84 850.62
  L 821.75 848.21
  A 0.48 0.48 0.0 0 1 822.37 848.09
  L 825.96 850.17
  A 2.46 2.45 34.1 0 0 829.11 849.57
  L 834.13 843.22
  A 2.95 2.95 0.0 0 0 833.64 839.07
  L 831.21 837.15
  A 2.71 2.71 0.0 0 0 827.46 837.53
  Q 823.24 842.54 821.40 844.38
  C 819.58 846.20 817.46 847.32 814.80 845.86
  C 811.98 844.30 806.46 840.21 807.21 836.65
  C 808.04 832.68 813.94 826.85 816.66 824.71
  C 819.70 822.32 823.30 824.43 825.63 826.56
  A 0.74 0.74 0.0 0 1 825.71 827.56
  Z"
/>
<path fill="#20201e" d="
  M 222.78 856.16
  L 220.60 854.13
  A 0.73 0.73 0.0 0 1 220.61 853.05
  Q 223.29 850.56 222.40 849.12
  Q 220.40 845.85 216.08 842.28
  A 2.77 2.77 0.0 0 0 212.29 842.52
  L 210.34 844.61
  A 2.68 2.66 -46.4 0 0 210.42 848.35
  C 213.95 851.78 217.98 855.11 218.66 858.95
  A 2.24 2.22 -36.6 0 1 218.44 860.39
  C 216.88 863.44 210.57 871.05 206.34 868.30
  Q 199.69 863.99 195.70 857.44
  C 193.83 854.36 197.22 850.41 199.51 848.41
  A 0.58 0.57 -44.5 0 1 200.28 848.41
  L 202.53 850.51
  A 0.48 0.48 0.0 0 1 202.60 851.14
  L 200.23 854.55
  A 2.46 2.45 -51.2 0 0 200.56 857.74
  L 206.48 863.27
  A 2.96 2.96 0.0 0 0 210.66 863.12
  L 212.77 860.86
  A 2.71 2.71 0.0 0 0 212.70 857.09
  Q 208.06 852.47 206.37 850.48
  C 204.71 848.52 203.77 846.31 205.44 843.78
  C 207.23 841.10 211.76 835.93 215.25 836.97
  C 219.14 838.13 224.46 844.49 226.37 847.38
  C 228.50 850.61 226.10 854.02 223.79 856.17
  A 0.74 0.74 0.0 0 1 222.78 856.16
  Z"
/>
<path fill="#20201e" d="
  M 227.93 836.82
  L 230.92 839.49
  A 0.31 0.30 58.1 0 1 230.80 840.01
  L 224.23 841.91
  A 1.31 1.30 57.6 0 1 223.00 841.63
  L 221.18 840.01
  A 0.58 0.57 55.4 0 1 221.36 839.04
  L 227.53 836.75
  A 0.39 0.37 54.2 0 1 227.93 836.82
  Z"
/>
<path fill="#20201e" d="
  M 249.57 857.86
  L 243.09 860.15
  A 1.32 1.31 54.3 0 1 241.84 859.94
  L 239.93 858.42
  A 0.58 0.58 0.0 0 1 240.05 857.44
  L 246.10 854.78
  A 0.39 0.37 50.8 0 1 246.50 854.83
  L 249.66 857.33
  A 0.31 0.31 0.0 0 1 249.57 857.86
  Z"
/>
<path fill="#20201e" d="
  M 225.38 866.86
  C 223.22 869.26 218.82 873.41 220.42 876.40
  C 221.63 878.67 225.35 882.00 227.74 882.97
  Q 230.01 883.89 232.91 880.49
  A 0.70 0.70 0.0 0 1 233.88 880.39
  L 236.28 882.29
  A 0.78 0.78 0.0 0 1 236.39 883.42
  Q 230.93 889.73 226.38 887.17
  Q 220.25 883.72 216.40 878.16
  C 213.00 873.25 218.86 867.37 222.03 863.84
  C 225.20 860.31 230.42 853.86 235.67 856.72
  Q 241.61 859.97 245.69 865.70
  Q 248.72 869.95 243.02 876.05
  A 0.78 0.78 0.0 0 1 241.88 876.06
  L 239.74 873.87
  A 0.70 0.70 0.0 0 1 239.74 872.90
  Q 242.81 869.65 241.66 867.49
  C 240.44 865.22 236.73 861.87 234.35 860.91
  C 231.20 859.64 227.55 864.45 225.38 866.86
  Z"
/>
<path fill="#20201e" d="
  M 888.34 969.32
  C 888.52 969.32 888.59 969.29 888.63 969.15
  Q 890.48 963.62 892.58 957.83
  A 1.52 1.51 9.8 0 1 894.01 956.83
  L 894.28 956.83
  A 0.57 0.57 0.0 0 1 894.82 957.59
  L 890.10 971.48
  A 0.89 0.88 -85.5 0 1 889.42 972.06
  Q 888.92 972.15 888.34 972.15
  Q 887.75 972.15 887.25 972.06
  A 0.89 0.88 85.5 0 1 886.57 971.48
  L 881.85 957.59
  A 0.57 0.57 0.0 0 1 882.39 956.83
  L 882.66 956.83
  A 1.52 1.51 -9.8 0 1 884.09 957.83
  Q 886.19 963.62 888.04 969.15
  C 888.08 969.29 888.15 969.32 888.34 969.32
  Z"
/>
<path fill="#20201e" d="
  M 897.25 959.16
  Q 896.83 959.23 896.62 959.16
  A 1.23 1.15 -51.6 0 1 896.44 956.99
  Q 896.86 956.72 897.32 956.83
  A 1.19 1.18 47.0 0 1 897.25 959.16
  Z"
/>
<path fill="#20201e" d="
  M 902.51 961.88
  C 904.74 960.52 908.58 960.78 908.83 964.04
  Q 909.07 967.22 908.89 971.66
  A 0.48 0.48 0.0 0 1 908.41 972.12
  L 907.31 972.12
  A 0.46 0.45 90.0 0 1 906.86 971.66
  L 906.86 964.71
  A 1.73 1.73 0.0 0 0 905.13 962.98
  L 904.44 962.98
  A 2.50 2.49 0.0 0 0 901.94 965.47
  L 901.94 971.44
  A 0.69 0.68 90.0 0 1 901.26 972.13
  L 900.52 972.13
  A 0.59 0.58 90.0 0 1 899.94 971.54
  L 899.94 961.98
  A 0.75 0.74 68.3 0 1 900.17 961.44
  Q 900.96 960.68 901.69 961.71
  A 0.62 0.62 0.0 0 0 902.51 961.88
  Z"
/>
<path fill="#20201e" d="
  M 920.0471 968.6587
  A 3.55 3.55 0.0 0 1 916.5282 972.2396
  L 914.1883 972.2600
  A 3.55 3.55 0.0 0 1 910.6075 968.7411
  L 910.5729 964.7813
  A 3.55 3.55 0.0 0 1 914.0918 961.2004
  L 916.4317 961.1800
  A 3.55 3.55 0.0 0 1 920.0125 964.6989
  L 920.0471 968.6587
  Z
  M 917.9241 964.8024
  A 1.70 1.70 0.0 0 0 916.2450 963.0818
  L 914.3652 963.0588
  A 1.70 1.70 0.0 0 0 912.6445 964.7379
  L 912.5959 968.7176
  A 1.70 1.70 0.0 0 0 914.2750 970.4382
  L 916.1548 970.4612
  A 1.70 1.70 0.0 0 0 917.8755 968.7821
  L 917.9241 964.8024
  Z"
/>
<path fill="#20201e" d="
  M 923.37 966.83
  Q 923.43 968.69 923.56 969.05
  A 2.34 2.26 77.6 0 0 925.85 970.57
  Q 928.99 970.37 928.57 968.69
  A 0.57 0.56 85.0 0 1 929.15 967.99
  L 930.13 968.04
  A 0.56 0.56 0.0 0 1 930.66 968.60
  Q 930.66 970.89 929.24 971.78
  A 2.28 2.16 -63.7 0 1 928.38 972.10
  C 923.44 972.83 921.48 972.06 921.32 966.90
  C 921.16 961.74 923.07 960.84 928.05 961.27
  A 2.28 2.16 60.2 0 1 928.92 961.54
  Q 930.40 962.34 930.54 964.62
  A 0.56 0.56 0.0 0 1 930.04 965.21
  L 929.07 965.32
  A 0.57 0.56 -88.5 0 1 928.45 964.66
  Q 928.76 962.96 925.62 962.95
  A 2.34 2.26 -81.2 0 0 923.43 964.61
  Q 923.32 964.98 923.37 966.83
  Z"
/>
<path fill="#20201e" d="
  M 941.4566 968.6683
  A 3.61 3.61 0.0 0 1 937.8403 972.2720
  L 935.5203 972.2680
  A 3.61 3.61 0.0 0 1 931.9166 968.6517
  L 931.9234 964.7917
  A 3.61 3.61 0.0 0 1 935.5397 961.1880
  L 937.8597 961.1920
  A 3.61 3.61 0.0 0 1 941.4634 964.8083
  L 941.4566 968.6683
  Z
  M 939.4065 964.8772
  A 1.79 1.79 0.0 0 0 937.6417 963.0624
  L 935.9219 963.0384
  A 1.79 1.79 0.0 0 0 934.1071 964.8032
  L 934.0535 968.6428
  A 1.79 1.79 0.0 0 0 935.8183 970.4576
  L 937.5381 970.4816
  A 1.79 1.79 0.0 0 0 939.3529 968.7168
  L 939.4065 964.8772
  Z"
/>
<path fill="#20201e" d="
  M 952.07 971.61
  A 0.52 0.51 -90.0 0 1 951.56 972.13
  L 950.34 972.13
  A 0.56 0.55 -0.0 0 1 949.78 971.58
  L 949.78 964.62
  A 1.69 1.69 0.0 0 0 948.09 962.93
  L 947.39 962.93
  A 2.29 2.28 -0.0 0 0 945.10 965.21
  L 945.10 971.63
  A 0.50 0.50 0.0 0 1 944.60 972.13
  L 943.36 972.13
  A 0.51 0.51 0.0 0 1 942.85 971.62
  L 942.85 961.89
  A 0.66 0.64 79.6 0 1 943.26 961.28
  Q 944.18 960.91 944.77 961.53
  A 0.86 0.85 53.6 0 0 945.78 961.69
  Q 948.85 960.11 951.11 962.43
  A 0.50 0.50 0.0 0 0 951.87 962.38
  Q 952.49 961.56 953.52 961.31
  C 960.50 959.58 958.88 967.53 958.94 971.49
  A 0.64 0.64 0.0 0 1 958.30 972.15
  L 957.38 972.15
  A 0.60 0.60 0.0 0 1 956.78 971.55
  L 956.78 964.81
  A 1.94 1.94 0.0 0 0 954.65 962.88
  L 954.13 962.93
  A 2.28 2.28 0.0 0 0 952.07 965.20
  L 952.07 971.61
  Z"
/>
<path fill="#20201e" d="
  M 962.66 972.22
  L 962.66 975.79
  A 0.67 0.67 0.0 0 1 961.99 976.46
  L 961.33 976.46
  A 0.80 0.80 0.0 0 1 960.53 975.66
  L 960.53 961.57
  A 0.50 0.49 16.8 0 1 961.30 961.16
  Q 962.45 961.93 963.48 961.55
  C 966.42 960.47 969.69 961.34 969.82 964.83
  C 969.92 967.55 970.21 969.77 968.48 971.64
  A 1.36 1.33 -72.1 0 1 967.64 972.08
  Q 964.46 972.51 963.28 971.85
  A 0.42 0.42 0.0 0 0 962.66 972.22
  Z
  M 967.7197 964.9431
  A 1.84 1.84 0.0 0 0 965.8893 963.0935
  L 964.5893 963.0866
  A 1.84 1.84 0.0 0 0 962.7397 964.9170
  L 962.7203 968.6169
  A 1.84 1.84 0.0 0 0 964.5507 970.4665
  L 965.8507 970.4734
  A 1.84 1.84 0.0 0 0 967.7003 968.6430
  L 967.7197 964.9431
  Z"
/>
<path fill="#20201e" d="
  M 990.31 964.73
  Q 990.29 964.74 989.92 964.71
  A 0.91 0.91 0.0 0 1 989.11 964.03
  Q 988.67 962.32 984.99 963.24
  A 1.16 1.15 49.6 0 0 984.82 965.42
  C 987.49 966.57 991.90 964.52 991.33 969.69
  A 2.75 2.73 88.6 0 1 989.05 972.10
  Q 987.21 972.40 983.85 972.08
  A 1.34 1.32 74.1 0 1 982.93 971.56
  Q 982.05 970.37 982.11 968.91
  A 0.89 0.88 4.2 0 1 983.10 968.06
  L 983.12 968.07
  A 1.14 1.13 -88.2 0 1 984.12 969.14
  Q 984.17 970.24 985.26 970.39
  Q 987.12 970.66 988.35 970.32
  A 1.32 1.31 39.5 0 0 988.10 967.74
  C 985.44 967.54 982.07 967.78 982.12 964.38
  C 982.19 960.12 987.73 960.73 990.33 961.91
  A 1.55 1.55 0.0 0 1 990.31 964.73
  Z"
/>
<rect fill="#20201e" x="-1.06" y="-5.49" transform="translate(896.98,966.69) rotate(0.1)" width="2.12" height="10.98" rx="0.63"/>
<path fill="#20201e" d="
  M 977.61 965.67
  A 0.56 0.55 -79.5 0 0 978.36 965.15
  L 978.36 964.34
  A 1.18 1.18 0.0 0 0 977.20 963.16
  L 975.02 963.13
  A 1.10 1.09 -86.9 0 0 973.91 964.13
  Q 973.90 964.18 973.89 964.29
  A 0.86 0.85 -3.4 0 1 973.17 965.09
  Q 972.59 965.18 972.57 965.17
  A 1.69 1.68 -46.7 0 1 972.48 962.17
  C 975.41 960.55 980.54 960.60 980.56 965.02
  Q 980.57 969.01 980.70 970.37
  A 1.67 1.67 0.0 0 1 979.04 972.20
  L 973.68 972.20
  A 2.33 2.32 -5.4 0 1 971.39 970.31
  Q 970.77 967.02 972.31 966.11
  Q 974.84 964.63 977.61 965.67
  Z
  M 978.4490 968.6164
  A 1.47 1.47 0.0 0 0 976.9713 967.1541
  L 974.7114 967.1659
  A 1.47 1.47 0.0 0 0 973.2491 968.6436
  L 973.2510 969.0036
  A 1.47 1.47 0.0 0 0 974.7287 970.4659
  L 976.9886 970.4541
  A 1.47 1.47 0.0 0 0 978.4509 968.9764
  L 978.4490 968.6164
  Z"
/>
<path fill="#20201e" d="
  M 705.74 987.09
  A 0.68 0.68 0.0 0 1 704.56 987.73
  Q 704.26 987.35 703.94 986.64
  A 1.11 1.10 -4.2 0 0 703.25 986.05
  C 698.78 984.80 698.46 988.44 698.88 991.77
  A 1.83 1.80 21.4 0 0 699.30 992.71
  Q 700.93 994.58 703.19 993.54
  C 703.97 993.18 704.19 992.40 704.54 991.53
  A 0.62 0.62 0.0 0 1 705.27 991.16
  L 705.59 991.25
  A 0.42 0.41 18.0 0 1 705.88 991.80
  Q 705.24 993.41 704.94 993.75
  C 702.89 996.05 699.12 995.61 697.81 992.65
  C 696.70 990.15 697.00 986.66 699.46 985.23
  C 701.58 984.00 704.87 984.54 705.74 987.09
  Z"
/>
<path fill="#20201e" d="
  M 819.11 990.82
  A 0.38 0.37 -44.1 0 0 819.84 990.83
  L 821.31 985.20
  A 0.82 0.81 -75.3 0 1 822.30 984.62
  L 822.65 984.71
  A 0.49 0.48 -75.5 0 1 822.99 985.30
  L 820.63 994.36
  A 1.10 1.09 -43.5 0 1 818.50 994.31
  Q 817.79 990.82 816.68 988.38
  A 0.16 0.16 0.0 0 0 816.38 988.41
  L 814.82 994.42
  A 1.13 1.13 0.0 0 1 812.62 994.38
  L 810.55 985.11
  A 0.45 0.45 0.0 0 1 811.10 984.58
  L 811.59 984.71
  A 0.98 0.97 1.0 0 1 812.30 985.44
  L 813.40 990.38
  A 0.48 0.48 0.0 0 0 814.33 990.40
  L 815.63 985.39
  A 1.17 1.17 0.0 0 1 817.91 985.43
  L 819.11 990.82
  Z"
/>
<path fill="#20201e" d="
  M 736.01 986.02
  A 0.55 0.47 68.1 0 1 735.18 985.58
  Q 735.14 984.90 735.78 984.85
  Q 736.30 984.81 736.30 985.32
  Q 736.30 985.72 736.01 986.02
  Z"
/>
<path fill="#20201e" d="
  M 748.56 988.09
  L 749.37 987.56
  A 0.87 0.85 -57.3 0 1 749.98 987.42
  C 753.44 987.93 752.51 992.00 752.41 994.55
  A 0.53 0.52 1.1 0 1 751.88 995.05
  L 751.56 995.05
  A 0.35 0.34 0.0 0 1 751.21 994.71
  L 751.21 989.92
  A 1.26 1.26 0.0 0 0 749.95 988.66
  L 749.31 988.66
  A 1.46 1.46 0.0 0 0 747.85 990.12
  L 747.85 994.52
  A 0.45 0.45 0.0 0 1 747.40 994.97
  L 747.13 994.97
  A 0.57 0.57 0.0 0 1 746.56 994.40
  L 746.56 985.44
  A 0.50 0.49 -90.0 0 1 747.05 984.94
  L 747.47 984.94
  A 0.40 0.40 0.0 0 1 747.87 985.34
  L 747.87 987.72
  A 0.44 0.44 0.0 0 0 748.56 988.09
  Z"
/>
<path fill="#20201e" d="
  M 824.85 984.70
  Q 825.07 984.70 825.26 984.75
  A 0.60 0.60 0.0 0 1 825.71 985.41
  Q 825.65 985.82 825.43 986.06
  A 0.73 0.73 0.0 0 0 825.28 986.74
  Q 825.85 988.66 825.67 994.41
  Q 825.66 994.82 825.46 994.96
  Q 825.22 995.12 824.82 995.12
  Q 824.42 995.12 824.18 994.95
  Q 823.98 994.82 823.98 994.41
  Q 823.82 988.66 824.40 986.74
  A 0.73 0.73 0.0 0 0 824.26 986.06
  Q 824.04 985.82 823.98 985.41
  A 0.60 0.60 0.0 0 1 824.43 984.75
  Q 824.63 984.70 824.85 984.70
  Z"
/>
<path fill="#20201e" d="
  M 844.02 986.31
  Q 843.52 986.25 843.15 985.53
  A 0.46 0.46 0.0 0 1 843.27 984.95
  Q 843.87 984.46 844.43 984.67
  A 0.85 0.85 0.0 0 1 844.02 986.31
  Z"
/>
<path fill="#20201e" d="
  M 872.68 984.83
  Q 872.88 984.83 873.01 984.86
  A 0.88 0.87 -4.5 0 1 873.66 985.41
  L 876.92 994.34
  A 0.52 0.51 -22.6 0 1 876.65 994.99
  Q 876.42 995.10 875.81 994.88
  A 0.66 0.65 6.8 0 1 875.39 994.35
  Q 875.18 992.66 874.57 992.22
  A 1.36 1.35 59.0 0 0 873.59 991.97
  Q 873.19 992.03 872.67 992.03
  Q 872.15 992.03 871.75 991.97
  A 1.36 1.35 -58.8 0 0 870.77 992.21
  Q 870.16 992.65 869.94 994.34
  A 0.66 0.65 -6.6 0 1 869.52 994.87
  Q 868.91 995.09 868.68 994.98
  A 0.52 0.51 22.7 0 1 868.41 994.33
  L 871.70 985.41
  A 0.88 0.87 4.7 0 1 872.36 984.85
  Q 872.49 984.83 872.68 984.83
  Z
  M 871.82 990.88
  L 873.61 990.80
  A 0.26 0.26 0.0 0 0 873.86 990.53
  L 873.86 990.38
  A 3.05 1.16 87.5 0 0 872.56 987.38
  A 3.05 1.16 87.5 0 0 871.54 990.48
  L 871.55 990.63
  A 0.26 0.26 0.0 0 0 871.82 990.88
  Z"
/>
<rect fill="#20201e" x="880.96" y="984.90" width="1.42" height="10.00" rx="0.69"/>
<path fill="#20201e" d="
  M 895.77 994.50
  A 0.42 0.42 0.0 0 1 895.36 995.02
  L 894.85 995.02
  A 0.83 0.83 0.0 0 1 894.02 994.19
  L 894.02 991.91
  A 1.10 1.10 0.0 0 0 892.92 990.81
  L 890.30 990.81
  A 0.77 0.76 0.0 0 0 889.53 991.57
  L 889.53 994.42
  A 0.57 0.57 0.0 0 1 888.96 994.99
  L 888.69 994.99
  A 0.63 0.63 0.0 0 1 888.06 994.36
  L 888.06 985.50
  A 0.58 0.58 0.0 0 1 888.61 984.92
  Q 890.49 984.82 892.38 984.89
  C 894.97 984.98 896.39 987.09 894.86 989.24
  A 0.75 0.74 -34.4 0 0 894.74 989.85
  L 895.77 994.50
  Z
  M 889.53 986.64
  L 889.55 988.82
  A 0.63 0.63 0.0 0 0 890.19 989.44
  L 892.33 989.43
  A 1.78 1.54 -0.5 0 0 894.10 987.87
  L 894.10 987.51
  A 1.78 1.54 -0.5 0 0 892.30 985.99
  L 890.16 986.00
  A 0.63 0.63 0.0 0 0 889.53 986.64
  Z"
/>
<circle fill="#20201e" cx="897.77" cy="985.42" r="0.58"/>
<path fill="#20201e" d="
  M 909.74 987.58
  A 0.45 0.45 0.0 0 0 910.44 987.95
  L 911.25 987.41
  A 0.87 0.86 -57.9 0 1 911.86 987.26
  C 915.36 987.74 914.46 991.86 914.38 994.43
  A 0.54 0.53 0.6 0 1 913.85 994.94
  L 913.53 994.94
  A 0.35 0.34 -0.5 0 1 913.17 994.60
  L 913.13 989.77
  A 1.27 1.27 0.0 0 0 911.84 988.51
  L 911.20 988.52
  A 1.47 1.47 0.0 0 0 909.74 990.01
  L 909.78 994.44
  A 0.45 0.45 0.0 0 1 909.33 994.90
  L 909.06 994.90
  A 0.57 0.57 0.0 0 1 908.48 994.34
  L 908.39 985.30
  A 0.50 0.49 89.5 0 1 908.88 984.79
  L 909.31 984.78
  A 0.40 0.40 0.0 0 1 909.71 985.18
  L 909.74 987.58
  Z"
/>
<path fill="#20201e" d="
  M 938.53 994.43
  A 0.42 0.42 0.0 0 1 938.12 994.94
  L 937.61 994.94
  A 0.82 0.82 0.0 0 1 936.80 994.11
  L 936.82 991.84
  A 1.09 1.09 0.0 0 0 935.74 990.74
  L 933.13 990.71
  A 0.76 0.75 0.5 0 0 932.36 991.46
  L 932.33 994.29
  A 0.57 0.57 0.0 0 1 931.76 994.85
  L 931.49 994.85
  A 0.63 0.63 0.0 0 1 930.87 994.22
  L 930.96 985.42
  A 0.58 0.58 0.0 0 1 931.51 984.85
  Q 933.38 984.77 935.26 984.85
  C 937.83 984.97 939.22 987.08 937.68 989.20
  A 0.75 0.74 -33.8 0 0 937.55 989.80
  L 938.53 994.43
  Z
  M 932.36 986.45
  L 932.33 988.93
  A 0.48 0.48 0.0 0 0 932.80 989.42
  L 935.20 989.45
  A 1.72 1.50 0.7 0 0 936.94 987.97
  L 936.94 987.53
  A 1.72 1.50 0.7 0 0 935.24 986.01
  L 932.84 985.98
  A 0.48 0.48 0.0 0 0 932.36 986.45
  Z"
/>
<path fill="#20201e" d="
  M 985.15 994.56
  C 980.87 998.13 977.57 987.20 984.13 987.42
  C 984.34 987.43 984.90 987.87 985.25 988.05
  A 0.44 0.43 -76.8 0 0 985.88 987.65
  L 985.88 985.44
  A 0.61 0.61 0.0 0 1 986.49 984.83
  L 986.76 984.83
  A 0.38 0.37 90.0 0 1 987.13 985.21
  L 987.13 994.39
  A 0.53 0.53 0.0 0 1 986.85 994.86
  Q 986.29 995.14 985.97 994.67
  A 0.56 0.56 0.0 0 0 985.15 994.56
  Z
  M 983.8144 988.3901
  A 2.80 2.18 -89.5 0 0 981.6101 991.1710
  A 2.80 2.18 -89.5 0 0 983.7656 993.9899
  A 2.80 2.18 -89.5 0 0 985.9699 991.2090
  A 2.80 2.18 -89.5 0 0 983.8144 988.3901
  Z"
/>
<path fill="#20201e" d="
  M 771.86 989.93
  A 5.00 5.00 0.0 0 1 766.86 994.93
  A 5.00 5.00 0.0 0 1 761.86 989.93
  A 5.00 5.00 0.0 0 1 766.86 984.93
  A 5.00 5.00 0.0 0 1 771.86 989.93
  Z
  M 771.20 989.88
  A 4.28 4.28 0.0 0 0 766.92 985.60
  A 4.28 4.28 0.0 0 0 762.64 989.88
  A 4.28 4.28 0.0 0 0 766.92 994.16
  A 4.28 4.28 0.0 0 0 771.20 989.88
  Z"
/>
<rect fill="#20201e" x="-0.60" y="-4.97" transform="translate(878.63,989.91) rotate(-0.2)" width="1.20" height="9.94" rx="0.57"/>
<path fill="#20201e" d="
  M 782.82 993.64
  A 0.44 0.44 0.0 0 1 783.28 994.05
  L 783.30 994.42
  A 0.41 0.40 -4.2 0 1 782.92 994.85
  L 778.19 995.14
  A 1.57 1.57 0.0 0 1 777.23 992.26
  L 781.55 989.41
  A 1.27 1.26 56.8 0 0 781.91 987.66
  L 781.36 986.83
  A 1.29 1.28 -20.4 0 0 780.13 986.27
  Q 778.59 986.46 778.01 988.45
  A 0.46 0.46 0.0 0 1 777.19 988.57
  L 776.96 988.23
  A 0.51 0.50 40.4 0 1 776.92 987.75
  Q 778.48 984.06 781.96 985.64
  A 1.92 1.89 84.8 0 1 782.74 986.30
  Q 784.23 988.50 782.06 990.60
  A 2.01 1.86 9.7 0 1 781.40 991.03
  Q 779.48 991.79 778.37 993.08
  A 0.49 0.49 0.0 0 0 778.77 993.89
  L 782.82 993.64
  Z"
/>
<path fill="#20201e" d="
  M 787.7120 985.0300
  A 5.15 3.38 -90.2 0 1 791.1100 990.1682
  A 5.15 3.38 -90.2 0 1 787.7480 995.3300
  A 5.15 3.38 -90.2 0 1 784.3500 990.1918
  A 5.15 3.38 -90.2 0 1 787.7120 985.0300
  Z
  M 787.7169 986.2100
  A 3.95 2.01 -89.9 0 0 785.7000 990.1565
  A 3.95 2.01 -89.9 0 0 787.7031 994.1100
  A 3.95 2.01 -89.9 0 0 789.7200 990.1635
  A 3.95 2.01 -89.9 0 0 787.7169 986.2100
  Z"
/>
<path fill="#20201e" d="
  M 795.50 985.39
  A 0.42 0.42 0.0 0 1 796.30 985.58
  L 796.30 994.63
  A 0.41 0.41 0.0 0 1 795.89 995.04
  L 795.58 995.04
  A 0.55 0.55 0.0 0 1 795.03 994.49
  L 795.03 988.60
  A 0.60 0.60 0.0 0 0 794.38 988.00
  L 793.35 988.10
  A 0.27 0.24 59.9 0 1 793.20 988.05
  Q 792.92 987.81 793.10 987.31
  Q 793.25 986.91 793.55 986.95
  Q 794.64 987.11 795.50 985.39
  Z"
/>
<path fill="#20201e" d="
  M 805.39 990.01
  C 807.89 995.55 800.73 997.24 799.60 992.53
  A 0.52 0.52 0.0 0 1 800.57 992.17
  L 801.10 993.23
  A 1.11 1.09 84.1 0 0 801.78 993.79
  Q 803.03 994.14 803.77 993.70
  Q 804.83 993.07 804.66 991.86
  Q 804.48 990.56 802.47 990.22
  A 0.37 0.37 0.0 0 1 802.25 989.62
  Q 802.75 989.02 803.21 989.15
  A 1.30 1.02 81.4 0 0 804.26 987.30
  C 803.36 985.38 801.18 986.42 800.81 988.13
  A 0.47 0.47 0.0 0 1 799.88 988.09
  Q 799.58 985.59 802.55 985.19
  A 3.05 3.03 -18.9 0 1 805.58 986.66
  Q 806.10 987.57 805.40 989.07
  A 1.14 1.12 -44.7 0 0 805.39 990.01
  Z"
/>
<path fill="#20201e" d="
  M 757.00 994.42
  A 0.75 0.55 -1.5 0 1 756.09 995.13
  Q 754.63 994.86 754.62 993.31
  Q 754.60 991.55 754.64 989.78
  A 1.30 1.29 -67.9 0 0 754.24 988.82
  Q 754.12 988.70 754.07 988.65
  A 0.75 0.74 48.1 0 1 754.12 987.61
  Q 754.69 987.08 754.76 986.13
  A 0.48 0.47 -48.5 0 1 755.70 986.07
  Q 755.93 987.24 756.60 987.75
  A 0.50 0.50 0.0 0 1 756.58 988.57
  L 756.19 988.83
  A 0.69 0.68 74.1 0 0 755.87 989.41
  L 755.87 992.93
  A 1.09 1.09 0.0 0 0 756.39 993.86
  Q 756.90 994.19 757.00 994.42
  Z"
/>
<path fill="#20201e" d="
  M 918.95 994.35
  A 0.76 0.56 -1.9 0 1 918.03 995.07
  Q 916.54 994.81 916.52 993.24
  Q 916.49 991.45 916.52 989.65
  A 1.32 1.31 -68.3 0 0 916.10 988.67
  Q 915.98 988.55 915.93 988.50
  A 0.76 0.76 0.0 0 1 915.97 987.44
  Q 916.55 986.90 916.61 985.94
  A 0.48 0.48 0.0 0 1 917.57 985.87
  Q 917.81 987.06 918.49 987.57
  A 0.51 0.51 0.0 0 1 918.48 988.40
  L 918.08 988.67
  A 0.70 0.69 73.7 0 0 917.76 989.26
  L 917.79 992.84
  A 1.11 1.11 0.0 0 0 918.32 993.78
  Q 918.85 994.11 918.95 994.35
  Z"
/>
<path fill="#20201e" d="
  M 843.42 995.06
  A 0.28 0.28 0.0 0 1 843.14 994.78
  L 843.17 989.31
  A 2.45 0.78 -89.7 0 1 843.96 986.86
  L 844.18 986.86
  A 2.45 0.78 -89.7 0 1 844.95 989.31
  L 844.92 994.78
  A 0.28 0.28 0.0 0 1 844.64 995.06
  L 843.42 995.06
  Z"
/>
<path fill="#20201e" d="
  M 765.22 990.01
  Q 765.25 990.85 765.86 991.68
  A 1.10 1.08 -17.6 0 0 766.74 992.13
  Q 767.58 992.14 768.44 991.22
  A 0.32 0.32 0.0 0 1 769.00 991.41
  Q 769.10 992.38 767.50 992.82
  C 765.52 993.38 764.23 991.95 764.17 990.05
  C 764.11 988.14 765.32 986.64 767.33 987.07
  Q 768.95 987.42 768.91 988.39
  A 0.32 0.32 0.0 0 1 768.36 988.62
  Q 767.45 987.75 766.61 987.81
  A 1.10 1.08 14.2 0 0 765.75 988.31
  Q 765.20 989.17 765.22 990.01
  Z"
/>
<path fill="#20201e" d="
  M 828.31 995.16
  L 828.00 995.16
  A 0.79 0.79 0.0 0 1 827.21 994.37
  L 827.21 988.06
  A 0.71 0.71 0.0 0 1 828.08 987.37
  Q 829.04 987.60 829.75 987.36
  C 834.40 985.76 833.67 991.19 833.72 994.43
  A 0.69 0.69 0.0 0 1 833.03 995.13
  L 832.53 995.13
  A 0.60 0.59 0.0 0 1 831.93 994.54
  L 831.93 989.72
  A 1.00 1.00 0.0 0 0 830.93 988.72
  L 830.29 988.72
  A 1.33 1.33 0.0 0 0 828.95 990.05
  L 828.95 994.52
  A 0.64 0.64 0.0 0 1 828.31 995.16
  Z"
/>
<path fill="#20201e" d="
  M 835.22 994.36
  L 835.22 988.07
  A 0.71 0.70 -83.3 0 1 836.09 987.38
  Q 837.05 987.61 837.75 987.37
  C 842.39 985.77 841.67 991.19 841.72 994.42
  A 0.69 0.69 0.0 0 1 841.03 995.12
  L 840.53 995.12
  A 0.60 0.59 0.0 0 1 839.93 994.53
  L 839.93 989.72
  A 1.00 1.00 0.0 0 0 838.93 988.72
  L 838.29 988.72
  A 1.33 1.33 0.0 0 0 836.96 990.05
  L 836.96 994.51
  A 0.64 0.64 0.0 0 1 836.32 995.15
  L 836.01 995.15
  A 0.79 0.79 0.0 0 1 835.22 994.36
  Z"
/>
<path fill="#20201e" d="
  M 847.86 991.25
  Q 847.87 991.36 847.92 992.52
  A 1.28 1.28 0.0 0 0 849.21 993.75
  Q 850.78 993.73 850.98 992.91
  A 1.07 1.07 0.0 0 1 852.06 992.13
  L 852.50 992.15
  A 0.54 0.54 0.0 0 1 852.93 992.96
  Q 851.88 994.72 851.27 994.94
  C 848.15 996.09 846.18 994.30 846.10 991.30
  C 846.02 988.30 847.89 986.40 851.06 987.37
  Q 851.69 987.57 852.83 989.27
  A 0.54 0.54 0.0 0 1 852.44 990.10
  L 852.01 990.14
  A 1.07 1.07 0.0 0 1 850.89 989.42
  Q 850.64 988.61 849.07 988.68
  A 1.28 1.28 0.0 0 0 847.85 989.97
  Q 847.86 991.14 847.86 991.25
  Z"
/>
<path fill="#20201e" d="
  M 860.26 995.04
  Q 859.66 995.32 858.78 994.90
  A 1.39 1.38 -42.6 0 0 857.72 994.86
  Q 854.25 996.20 853.21 993.03
  A 1.30 1.30 0.0 0 1 853.64 991.61
  Q 855.47 990.20 857.60 990.04
  A 0.60 0.59 54.1 0 0 857.78 988.90
  Q 856.05 988.17 854.85 989.75
  A 0.61 0.58 -29.9 0 1 853.77 989.49
  C 853.57 986.69 860.17 985.36 859.86 990.69
  Q 859.69 993.56 860.39 994.22
  A 0.50 0.50 0.0 0 1 860.26 995.04
  Z
  M 858.0688 992.0753
  A 1.62 0.98 -22.3 0 0 856.1981 991.7833
  A 1.62 0.98 -22.3 0 0 855.0712 993.3047
  A 1.62 0.98 -22.3 0 0 856.9419 993.5967
  A 1.62 0.98 -22.3 0 0 858.0688 992.0753
  Z"
/>
<path fill="#20201e" d="
  M 713.90 991.98
  A 3.14 3.14 0.0 0 1 710.76 995.12
  L 710.24 995.12
  A 3.14 3.14 0.0 0 1 707.10 991.98
  L 707.10 990.52
  A 3.14 3.14 0.0 0 1 710.24 987.38
  L 710.76 987.38
  A 3.14 3.14 0.0 0 1 713.90 990.52
  L 713.90 991.98
  Z
  M 710.4659 988.4203
  A 2.81 2.35 -90.9 0 0 708.1603 991.2669
  A 2.81 2.35 -90.9 0 0 710.5541 994.0397
  A 2.81 2.35 -90.9 0 0 712.8597 991.1931
  A 2.81 2.35 -90.9 0 0 710.4659 988.4203
  Z"
/>
<path fill="#20201e" d="
  M 716.54 987.88
  A 0.57 0.56 51.9 0 0 717.37 987.98
  C 721.67 984.31 725.15 995.35 718.49 995.21
  C 718.28 995.20 717.70 994.76 717.34 994.58
  A 0.45 0.44 -77.5 0 0 716.71 995.00
  L 716.74 997.24
  A 0.62 0.62 0.0 0 1 716.13 997.86
  L 715.85 997.87
  A 0.39 0.38 89.3 0 1 715.47 997.49
  L 715.36 988.17
  A 0.54 0.54 0.0 0 1 715.64 987.69
  Q 716.21 987.40 716.54 987.88
  Z
  M 720.8447 990.3409
  A 1.77 1.77 0.0 0 0 719.0840 988.5616
  L 718.4840 988.5585
  A 1.77 1.77 0.0 0 0 716.7047 990.3192
  L 716.6953 992.1191
  A 1.77 1.77 0.0 0 0 718.4560 993.8984
  L 719.0560 993.9015
  A 1.77 1.77 0.0 0 0 720.8353 992.1408
  L 720.8447 990.3409
  Z"
/>
<path fill="#20201e" d="
  M 743.86 987.74
  A 0.61 0.61 0.0 0 1 744.61 988.31
  Q 744.85 993.84 744.47 995.65
  C 743.85 998.59 739.93 998.71 738.39 996.54
  A 0.44 0.44 0.0 0 1 738.78 995.85
  Q 739.18 995.87 739.86 996.33
  C 741.32 997.33 742.87 996.78 743.37 995.05
  A 0.30 0.30 0.0 0 0 743.01 994.68
  C 741.63 995.01 740.65 995.37 739.69 994.80
  C 735.97 992.58 738.76 985.30 742.38 987.83
  A 0.82 0.81 55.1 0 0 743.01 987.95
  L 743.86 987.74
  Z
  M 741.2518 988.4511
  A 2.80 2.15 -91.6 0 0 739.1808 991.3100
  A 2.80 2.15 -91.6 0 0 741.4082 994.0489
  A 2.80 2.15 -91.6 0 0 743.4792 991.1900
  A 2.80 2.15 -91.6 0 0 741.2518 988.4511
  Z"
/>
<path fill="#20201e" d="
  M 906.75 988.34
  Q 906.90 993.91 906.48 995.73
  C 905.81 998.68 901.86 998.73 900.35 996.52
  A 0.44 0.44 0.0 0 1 900.75 995.83
  Q 901.15 995.86 901.83 996.34
  C 903.28 997.37 904.85 996.84 905.39 995.11
  A 0.31 0.30 2.1 0 0 905.03 994.73
  C 903.64 995.04 902.64 995.38 901.69 994.79
  C 897.98 992.50 900.91 985.21 904.51 987.82
  A 0.83 0.81 56.1 0 0 905.14 987.95
  L 906.00 987.76
  A 0.61 0.61 0.0 0 1 906.75 988.34
  Z
  M 905.3274 990.2704
  A 1.79 1.79 0.0 0 0 903.4760 988.5440
  L 903.0363 988.5593
  A 1.79 1.79 0.0 0 0 901.3098 990.4107
  L 901.3726 992.2096
  A 1.79 1.79 0.0 0 0 903.2240 993.9360
  L 903.6637 993.9207
  A 1.79 1.79 0.0 0 0 905.3902 992.0693
  L 905.3274 990.2704
  Z"
/>
<path fill="#20201e" d="
  M 925.38 989.22
  A 0.38 0.38 0.0 0 1 924.78 989.61
  Q 922.41 987.70 921.26 988.98
  A 0.62 0.62 0.0 0 0 921.52 989.98
  Q 924.44 991.01 924.65 991.12
  Q 926.66 992.16 925.27 993.97
  C 923.77 995.92 920.56 995.55 919.77 992.89
  A 0.44 0.44 0.0 0 1 920.56 992.53
  Q 922.19 995.11 924.55 993.21
  A 0.55 0.55 0.0 0 0 924.38 992.26
  L 920.89 991.08
  A 0.76 0.72 79.0 0 1 920.54 990.83
  Q 920.04 990.22 920.02 990.16
  A 2.02 1.97 -15.9 0 1 921.51 987.56
  Q 924.75 986.85 925.38 989.22
  Z"
/>
<path fill="#20201e" d="
  M 945.31 991.65
  L 941.77 991.65
  A 0.70 0.70 0.0 0 0 941.11 992.58
  L 941.26 993.00
  A 1.37 1.36 89.5 0 0 942.13 993.86
  Q 943.95 994.45 945.17 992.81
  A 0.43 0.43 0.0 0 1 945.79 992.73
  L 945.90 992.82
  A 0.40 0.40 0.0 0 1 945.99 993.36
  Q 944.01 996.27 941.30 994.68
  C 938.45 993.02 939.20 987.02 943.71 987.40
  A 2.23 2.23 0.0 0 1 945.63 988.88
  L 946.17 990.43
  A 0.92 0.91 80.3 0 1 945.31 991.65
  Z
  M 941.24 990.58
  L 944.78 990.64
  A 0.19 0.19 0.0 0 0 944.98 990.45
  L 944.98 990.37
  A 1.85 1.85 0.0 0 0 943.16 988.49
  L 942.94 988.49
  A 1.85 1.85 0.0 0 0 941.06 990.31
  L 941.06 990.39
  A 0.19 0.19 0.0 0 0 941.24 990.58
  Z"
/>
<path fill="#20201e" d="
  M 952.78 989.25
  A 0.38 0.38 0.0 0 1 952.18 989.63
  Q 949.82 987.69 948.66 988.97
  A 0.62 0.62 0.0 0 0 948.91 989.97
  Q 951.82 991.03 952.03 991.14
  Q 954.04 992.21 952.62 994.01
  C 951.10 995.94 947.89 995.54 947.12 992.87
  A 0.44 0.44 0.0 0 1 947.92 992.52
  Q 949.53 995.12 951.91 993.24
  A 0.55 0.55 0.0 0 0 951.75 992.28
  L 948.26 991.07
  A 0.76 0.72 79.6 0 1 947.92 990.81
  Q 947.42 990.20 947.40 990.14
  A 2.02 1.98 -15.3 0 1 948.92 987.55
  Q 952.17 986.87 952.78 989.25
  Z"
/>
<path fill="#20201e" d="
  M 960.04 992.85
  Q 960.35 993.60 959.83 994.08
  C 957.26 996.47 954.45 994.85 954.12 991.69
  C 953.47 985.49 962.34 986.43 960.04 991.85
  A 1.29 1.29 0.0 0 0 960.04 992.85
  Z
  M 955.97 990.64
  L 958.77 990.62
  A 0.40 0.40 0.0 0 0 959.16 990.22
  L 959.16 990.11
  A 1.63 1.59 89.6 0 0 957.56 988.49
  L 957.14 988.49
  A 1.63 1.59 89.6 0 0 955.56 990.13
  L 955.56 990.24
  A 0.40 0.40 0.0 0 0 955.97 990.64
  Z
  M 959.49 991.62
  L 955.65 991.68
  A 0.21 0.21 0.0 0 0 955.44 991.90
  L 955.45 992.01
  A 2.06 2.05 89.0 0 0 957.53 994.03
  L 957.69 994.03
  A 2.06 2.05 89.0 0 0 959.70 991.93
  L 959.70 991.82
  A 0.21 0.21 0.0 0 0 959.49 991.62
  Z"
/>
<path fill="#20201e" d="
  M 978.80 988.92
  L 979.31 990.48
  A 0.92 0.91 81.0 0 1 978.44 991.69
  L 974.89 991.64
  A 0.70 0.70 0.0 0 0 974.22 992.56
  L 974.36 992.98
  A 1.37 1.36 -89.7 0 0 975.22 993.86
  Q 977.04 994.47 978.28 992.85
  A 0.43 0.43 0.0 0 1 978.90 992.77
  L 979.01 992.87
  A 0.40 0.40 0.0 0 1 979.10 993.41
  Q 977.07 996.29 974.38 994.67
  C 971.55 992.97 972.38 986.97 976.89 987.41
  A 2.24 2.23 -6.5 0 1 978.80 988.92
  Z
  M 974.49 990.65
  L 977.87 990.59
  A 0.27 0.27 0.0 0 0 978.13 990.32
  L 978.13 990.15
  A 1.84 1.70 -1.0 0 0 976.26 988.48
  L 976.02 988.48
  A 1.84 1.70 -1.0 0 0 974.21 990.21
  L 974.21 990.38
  A 0.27 0.27 0.0 0 0 974.49 990.65
  Z"
/>
<path fill="#20201e" d="
  M 725.83 992.41
  A 0.38 0.38 0.0 0 0 726.55 992.40
  L 728.08 987.89
  A 0.43 0.43 0.0 0 1 728.63 987.62
  L 728.91 987.72
  A 0.49 0.48 -71.8 0 1 729.21 988.33
  Q 726.56 996.07 726.04 997.02
  Q 725.32 998.29 724.04 997.99
  A 0.59 0.59 0.0 0 1 724.01 996.85
  Q 725.87 996.33 725.11 994.19
  Q 723.90 990.82 723.05 988.02
  A 0.35 0.35 0.0 0 1 723.50 987.58
  L 724.02 987.76
  A 0.45 0.43 89.5 0 1 724.29 988.04
  L 725.83 992.41
  Z"
/>
<path fill="#20201e" d="
  M 733.33 987.51
  A 0.45 0.45 0.0 0 1 734.03 987.92
  Q 733.98 988.77 732.90 988.97
  A 1.27 1.27 0.0 0 0 731.86 990.22
  L 731.86 994.44
  A 0.51 0.51 0.0 0 1 731.35 994.95
  L 731.08 994.95
  A 0.48 0.48 0.0 0 1 730.60 994.47
  L 730.60 988.20
  A 0.46 0.43 -24.9 0 1 730.72 987.90
  Q 731.17 987.44 731.73 988.00
  A 0.61 0.61 0.0 0 0 732.49 988.07
  L 733.33 987.51
  Z"
/>
<rect fill="#20201e" x="-0.58" y="-3.63" transform="translate(735.74,991.34) rotate(0.4)" width="1.16" height="7.26" rx="0.56"/>
<rect fill="#20201e" x="-0.64" y="-3.62" transform="translate(897.80,991.34) rotate(0.5)" width="1.28" height="7.24" rx="0.61"/>
<path fill="#20201e" d="
  M 969.24 992.64
  C 970.11 990.34 970.10 988.92 971.37 987.69
  A 0.41 0.41 0.0 0 1 972.04 988.12
  L 969.90 994.40
  A 0.95 0.95 0.0 0 1 968.11 994.41
  L 966.13 988.81
  A 0.70 0.70 0.0 0 0 965.08 988.46
  L 963.71 989.36
  A 1.22 1.20 -16.8 0 0 963.16 990.37
  L 963.16 994.42
  A 0.43 0.43 0.0 0 1 962.87 994.83
  L 962.51 994.96
  A 0.45 0.45 0.0 0 1 961.91 994.54
  L 961.91 988.03
  A 0.45 0.45 0.0 0 1 962.74 987.78
  L 962.89 988.00
  A 0.50 0.49 50.6 0 0 963.66 988.08
  Q 964.46 987.27 966.46 987.67
  A 0.99 0.98 -3.2 0 1 967.18 988.31
  L 968.71 992.64
  A 0.28 0.28 0.0 0 0 969.24 992.64
  Z"
/>
<path fill="#20201e" d="
  M 863.06 993.42
  Q 863.27 994.00 863.14 994.71
  A 0.60 0.50 31.2 0 1 862.17 994.86
  Q 861.58 994.24 862.11 993.43
  A 0.58 0.48 -40.6 0 1 863.06 993.42
  Z"
/>
<ellipse fill="#20201e" cx="0.00" cy="0.00" transform="translate(989.88,994.12) rotate(-81.9)" rx="0.91" ry="0.74"/>
</svg>
